<svg width="160" height="130" xmlns="http://www.w3.org/2000/svg"><g fill="#E9F7F3" fill-rule="evenodd"><rect width="10" height="10" rx="5"/><rect y="80" width="10" height="10" rx="5"/><rect y="40" width="10" height="10" rx="5"/><rect y="120" width="10" height="10" rx="5"/><rect x="60" width="10" height="10" rx="5"/><rect x="60" y="80" width="10" height="10" rx="5"/><rect x="60" y="40" width="10" height="10" rx="5"/><rect x="60" y="120" width="10" height="10" rx="5"/><rect x="120" width="10" height="10" rx="5"/><rect x="120" y="80" width="10" height="10" rx="5"/><rect x="120" y="40" width="10" height="10" rx="5"/><rect x="120" y="120" width="10" height="10" rx="5"/><rect x="30" width="10" height="10" rx="5"/><rect x="30" y="80" width="10" height="10" rx="5"/><rect x="30" y="40" width="10" height="10" rx="5"/><rect x="30" y="120" width="10" height="10" rx="5"/><rect x="90" width="10" height="10" rx="5"/><rect x="90" y="80" width="10" height="10" rx="5"/><rect x="90" y="40" width="10" height="10" rx="5"/><rect x="90" y="120" width="10" height="10" rx="5"/><rect x="150" width="10" height="10" rx="5"/><rect x="150" y="80" width="10" height="10" rx="5"/><rect x="150" y="40" width="10" height="10" rx="5"/><rect x="150" y="120" width="10" height="10" rx="5"/></g></svg>