<?xml version="1.0" encoding="UTF-8"?>
<svg width="160px" height="130px" viewBox="0 0 160 130" version="1.1" xmlns="http://www.w3.org/2000/svg" xmlns:xlink="http://www.w3.org/1999/xlink">
    <!-- Generator: Sketch 56.2 (81672) - https://sketch.com -->
    <title>Group</title>
    <desc>Created with Sketch.</desc>
    <g id="Page-1" stroke="none" stroke-width="1" fill="none" fill-rule="evenodd">
        <g id="Group" fill="#E9F7F3">
            <rect id="Rectangle" x="0" y="0" width="10" height="10" rx="5"></rect>
            <rect id="Rectangle-Copy-12" x="0" y="80" width="10" height="10" rx="5"></rect>
            <rect id="Rectangle-Copy-6" x="0" y="40" width="10" height="10" rx="5"></rect>
            <rect id="Rectangle-Copy-13" x="0" y="120" width="10" height="10" rx="5"></rect>
            <rect id="Rectangle-Copy-2" x="60" y="0" width="10" height="10" rx="5"></rect>
            <rect id="Rectangle-Copy-14" x="60" y="80" width="10" height="10" rx="5"></rect>
            <rect id="Rectangle-Copy-7" x="60" y="40" width="10" height="10" rx="5"></rect>
            <rect id="Rectangle-Copy-15" x="60" y="120" width="10" height="10" rx="5"></rect>
            <rect id="Rectangle-Copy-4" x="120" y="0" width="10" height="10" rx="5"></rect>
            <rect id="Rectangle-Copy-16" x="120" y="80" width="10" height="10" rx="5"></rect>
            <rect id="Rectangle-Copy-8" x="120" y="40" width="10" height="10" rx="5"></rect>
            <rect id="Rectangle-Copy-17" x="120" y="120" width="10" height="10" rx="5"></rect>
            <rect id="Rectangle-Copy" x="30" y="0" width="10" height="10" rx="5"></rect>
            <rect id="Rectangle-Copy-18" x="30" y="80" width="10" height="10" rx="5"></rect>
            <rect id="Rectangle-Copy-9" x="30" y="40" width="10" height="10" rx="5"></rect>
            <rect id="Rectangle-Copy-19" x="30" y="120" width="10" height="10" rx="5"></rect>
            <rect id="Rectangle-Copy-3" x="90" y="0" width="10" height="10" rx="5"></rect>
            <rect id="Rectangle-Copy-20" x="90" y="80" width="10" height="10" rx="5"></rect>
            <rect id="Rectangle-Copy-10" x="90" y="40" width="10" height="10" rx="5"></rect>
            <rect id="Rectangle-Copy-21" x="90" y="120" width="10" height="10" rx="5"></rect>
            <rect id="Rectangle-Copy-5" x="150" y="0" width="10" height="10" rx="5"></rect>
            <rect id="Rectangle-Copy-22" x="150" y="80" width="10" height="10" rx="5"></rect>
            <rect id="Rectangle-Copy-11" x="150" y="40" width="10" height="10" rx="5"></rect>
            <rect id="Rectangle-Copy-23" x="150" y="120" width="10" height="10" rx="5"></rect>
        </g>
    </g>
</svg>