<?xml version="1.0" encoding="UTF-8"?>
<svg width="125px" height="144px" viewBox="0 0 125 144" version="1.1" xmlns="http://www.w3.org/2000/svg" xmlns:xlink="http://www.w3.org/1999/xlink">
    <!-- Generator: Sketch 56.2 (81672) - https://sketch.com -->
    <title>Group 2</title>
    <desc>Created with Sketch.</desc>
    <g id="Page-1" stroke="none" stroke-width="1" fill="none" fill-rule="evenodd">
        <g id="Group-2" transform="translate(-0.000000, -0.000000)" fill="#E9F7F3">
            <rect id="Rectangle-Copy-2" x="30" y="2.84217094e-13" width="5" height="24" rx="2.5"></rect>
            <rect id="Rectangle-Copy-14" x="30" y="80" width="5" height="24" rx="2.5"></rect>
            <rect id="Rectangle-Copy-7" x="30" y="40" width="5" height="24" rx="2.5"></rect>
            <rect id="Rectangle-Copy-15" x="30" y="120" width="5" height="24" rx="2.5"></rect>
            <rect id="Rectangle-Copy-4" x="90" y="2.27373675e-13" width="5" height="24" rx="2.5"></rect>
            <rect id="Rectangle-Copy-16" x="90" y="80" width="5" height="24" rx="2.5"></rect>
            <rect id="Rectangle-Copy-8" x="90" y="40" width="5" height="24" rx="2.5"></rect>
            <rect id="Rectangle-Copy-17" x="90" y="120" width="5" height="24" rx="2.5"></rect>
            <rect id="Rectangle-Copy" x="1.70530257e-13" y="0" width="5" height="24" rx="2.5"></rect>
            <rect id="Rectangle-Copy-18" x="1.13686838e-13" y="80" width="5" height="24" rx="2.5"></rect>
            <rect id="Rectangle-Copy-9" x="0" y="40" width="5" height="24" rx="2.5"></rect>
            <rect id="Rectangle-Copy-19" x="5.68434189e-14" y="120" width="5" height="24" rx="2.5"></rect>
            <rect id="Rectangle-Copy-3" x="60" y="0" width="5" height="24" rx="2.5"></rect>
            <rect id="Rectangle-Copy-20" x="60" y="80" width="5" height="24" rx="2.5"></rect>
            <rect id="Rectangle-Copy-10" x="60" y="40" width="5" height="24" rx="2.5"></rect>
            <rect id="Rectangle-Copy-21" x="60" y="120" width="5" height="24" rx="2.5"></rect>
            <rect id="Rectangle-Copy-5" x="120" y="3.97903932e-13" width="5" height="24" rx="2.5"></rect>
            <rect id="Rectangle-Copy-22" x="120" y="80" width="5" height="24" rx="2.5"></rect>
            <rect id="Rectangle-Copy-11" x="120" y="40" width="5" height="24" rx="2.5"></rect>
            <rect id="Rectangle-Copy-23" x="120" y="120" width="5" height="24" rx="2.5"></rect>
        </g>
    </g>
</svg>