<svg width="189" height="189" fill="none" xmlns="http://www.w3.org/2000/svg"><g clip-path="url(#clip0)"><path d="M123.118 0H26.362C14.065 0 4.06 10.004 4.06 22.3v128.266c0 12.297 10.004 22.301 22.3 22.301h80.475l38.582-70.355V22.3c0-12.296-10.004-22.3-22.3-22.3z" fill="#EDEDF2"/><path d="M65.442 47.485H32.395a5.537 5.537 0 110-11.074h33.047a5.538 5.538 0 010 11.074zm0 22.15H32.395a5.537 5.537 0 110-11.074h33.047a5.538 5.538 0 010 11.074zm0 22.15H32.395a5.537 5.537 0 110-11.074h33.047a5.538 5.538 0 010 11.074zm0 22.15H32.395a5.537 5.537 0 110-11.075h33.047a5.538 5.538 0 010 11.075zm0 22.52H32.395a5.537 5.537 0 110-11.074h33.047a5.538 5.538 0 010 11.074zM123.119 0h-48.38v172.866h32.097l38.582-70.354V22.3c0-12.296-10.004-22.3-22.299-22.3z" fill="#E2E2E7"/><path d="M117.084 47.485H84.037a5.538 5.538 0 010-11.074h33.047a5.537 5.537 0 110 11.074zm0 22.15H84.037a5.538 5.538 0 010-11.074h33.047a5.537 5.537 0 110 11.074zm-17.131 22.15H84.037a5.538 5.538 0 010-11.074h15.916a5.537 5.537 0 110 11.074z" fill="#D3D3D8"/><path d="M171.94 110.721c-8.499-8.649-19.85-13.532-31.961-13.745l-.079-.002c-.25-.004-.499-.008-.748-.008-25.357 0-45.986 20.643-45.986 46.017 0 10.078 3.198 19.648 9.247 27.678 8.78 11.656 22.17 18.339 36.739 18.339 25.356 0 45.985-20.643 45.985-46.017 0-12.147-4.686-23.605-13.197-32.262z" fill="#0BE7D5"/><path d="M136.917 159.466a5.521 5.521 0 01-3.246-1.054l-13.098-9.49a5.538 5.538 0 016.498-8.967l8.829 6.396 14.262-17.779a5.538 5.538 0 018.638 6.93l-17.56 21.892a5.537 5.537 0 01-4.323 2.072z" fill="#00A793"/></g><defs><clipPath id="clip0"><rect width="189" height="189" fill="#fff"/></clipPath></defs></svg>