<svg width="8" height="8" fill="none" xmlns="http://www.w3.org/2000/svg"><g clip-path="url(#clip0)" fill="#7AC5AF"><path d="M6.082 5.292c-.261-.258-.587-.258-.847 0-.198.197-.396.393-.591.593-.053.055-.098.066-.163.03-.128-.07-.265-.127-.388-.203-.575-.362-1.056-.826-1.482-1.349a3.51 3.51 0 01-.53-.85c-.027-.064-.022-.105.03-.157.197-.191.39-.388.585-.584.271-.273.271-.593-.002-.868l-.464-.466c-.16-.16-.318-.321-.48-.48C1.49.705 1.164.705.904.962c-.2.196-.391.397-.594.59a.965.965 0 00-.303.651c-.032.415.07.806.213 1.187.293.79.74 1.49 1.28 2.133a7.922 7.922 0 002.624 2.052c.46.224.935.395 1.453.423.356.02.666-.07.914-.348.17-.19.361-.362.541-.544.266-.27.268-.596.003-.862a170.5 170.5 0 00-.952-.95zm-.318-1.327l.614-.104a2.745 2.745 0 00-.767-1.482 2.73 2.73 0 00-1.565-.78l-.086.617a2.126 2.126 0 011.804 1.749zm.961-2.67A4.53 4.53 0 004.128 0L4.04.618c.856.12 1.632.507 2.244 1.118a3.924 3.924 0 011.1 2.123L8 3.754a4.563 4.563 0 00-1.275-2.459z"/></g><defs><clipPath id="clip0"><rect width="8" height="8" fill="#fff"/></clipPath></defs></svg>