<svg width="37" height="37" fill="none" xmlns="http://www.w3.org/2000/svg"><g clip-path="url(#clip0)" fill="#fff"><path d="M36.277 14.923h-5.925v-1.53a.723.723 0 00-.723-.723h-15.61a.723.723 0 000 1.446h14.887v5.54a13.77 13.77 0 01-6.794 11.852H8.24a13.769 13.769 0 01-6.795-11.852v-5.54h4.842a.723.723 0 100-1.445H.723c-.4 0-.723.323-.723.722v6.263a15.157 15.157 0 005.699 11.852H.723c-.4 0-.723.323-.723.723A4.775 4.775 0 004.77 37h22.546c2.63 0 4.77-2.14 4.77-4.77a.723.723 0 00-.723-.722h-6.71a15.264 15.264 0 003.346-3.734h2.04A6.97 6.97 0 0037 20.812v-5.167a.723.723 0 00-.723-.722zm-5.716 18.03a3.33 3.33 0 01-3.245 2.602H4.77a3.33 3.33 0 01-3.246-2.602h29.037zm-.21-13.297v-.397h2.313v1.553a2.629 2.629 0 01-2.626 2.626h-.164c.316-1.229.478-2.5.478-3.782zm5.204 1.157a5.523 5.523 0 01-5.517 5.516h-1.23c.231-.471.437-.954.617-1.446h.613a4.076 4.076 0 004.071-4.07v-2.277a.723.723 0 00-.722-.723h-3.035v-1.445h5.203v4.445zM15.866 4l-.376-.473a1.884 1.884 0 01-.002-2.355.722.722 0 10-1.132-.899 3.323 3.323 0 00.003 4.155l.376.472a2.46 2.46 0 01.003 3.078l-.385.485a.723.723 0 001.132.899l.385-.486A3.9 3.9 0 0015.866 4zm4.006 1.624l-.377-.472a1.884 1.884 0 01-.002-2.355.722.722 0 10-1.132-.899 3.323 3.323 0 00.004 4.155l.376.472c.721.905.722 2.171.003 3.078l-.386.485a.723.723 0 101.132.899l.386-.486a3.9 3.9 0 00-.005-4.877zm-8.012 0l-.376-.472a1.884 1.884 0 01-.002-2.355.723.723 0 10-1.132-.899 3.323 3.323 0 00.004 4.155l.376.472c.72.905.722 2.171.002 3.078l-.385.485a.723.723 0 001.132.899l.385-.486a3.9 3.9 0 00-.004-4.877z"/><path d="M10.86 12.882a.728.728 0 00-.51-.212.728.728 0 00-.512.212.73.73 0 00-.212.51c0 .191.078.377.212.513a.728.728 0 001.022 0 .727.727 0 000-1.023zm15.3 6.052a.723.723 0 00-.723.722c0 2.683-1.088 5.319-2.985 7.233a.723.723 0 101.027 1.017 11.81 11.81 0 003.404-8.25.723.723 0 00-.723-.722zm-4.922 9.916a.723.723 0 00-.985-.274l-.016.01a.723.723 0 00.71 1.258l.016-.01a.723.723 0 00.275-.984z"/></g><defs><clipPath id="clip0"><rect width="37" height="37" fill="#fff"/></clipPath></defs></svg>