<svg width="37" height="37" fill="none" xmlns="http://www.w3.org/2000/svg"><path d="M32.964 0a4.04 4.04 0 00-4.037 4.036c0 .697.177 1.352.489 1.924l-6.613 6.613a5.343 5.343 0 00-6.589-.001l-5.16-5.16c.238-.4.382-.86.382-1.357a2.694 2.694 0 00-2.69-2.691 2.694 2.694 0 00-2.691 2.69 2.694 2.694 0 002.69 2.691c.498 0 .958-.144 1.359-.381l5.159 5.16a5.35 5.35 0 000 6.589l-8.52 8.52a4.017 4.017 0 00-2.707-1.051A4.04 4.04 0 000 31.618a4.04 4.04 0 004.036 4.037 4.04 4.04 0 004.037-4.037 4.01 4.01 0 00-.489-1.924l8.63-8.63a5.35 5.35 0 002.623 1.089v6.835a4.04 4.04 0 00-3.364 3.976A4.04 4.04 0 0019.51 37a4.04 4.04 0 004.036-4.036 4.04 4.04 0 00-3.363-3.976v-6.835a5.35 5.35 0 002.622-1.09l5.159 5.16a2.655 2.655 0 00-.382 1.359 2.694 2.694 0 002.69 2.69 2.694 2.694 0 002.692-2.69 2.694 2.694 0 00-2.691-2.691 2.66 2.66 0 00-1.358.381l-5.16-5.159a5.35 5.35 0 000-6.59l6.502-6.501a4.014 4.014 0 002.707 1.05A4.04 4.04 0 0037 4.037 4.04 4.04 0 0032.964 0zM7.4 6.055c0-.742.603-1.346 1.345-1.346s1.346.604 1.346 1.346a1.347 1.347 0 01-2.69 0zM4.036 34.309a2.694 2.694 0 01-2.69-2.69 2.694 2.694 0 012.69-2.692 2.694 2.694 0 012.691 2.691 2.694 2.694 0 01-2.69 2.691zM22.2 32.964a2.694 2.694 0 01-2.69 2.69 2.694 2.694 0 01-2.692-2.69 2.694 2.694 0 012.691-2.691 2.694 2.694 0 012.691 2.69zm-2.69-12.11a4.04 4.04 0 01-4.037-4.036 4.04 4.04 0 014.036-4.036 4.04 4.04 0 014.037 4.036 4.04 4.04 0 01-4.037 4.037zm12.108 6.728c0 .742-.603 1.345-1.345 1.345a1.347 1.347 0 01-1.346-1.345 1.347 1.347 0 012.69 0zm1.346-20.855a2.694 2.694 0 01-2.691-2.69 2.694 2.694 0 012.69-2.692 2.694 2.694 0 012.691 2.691 2.694 2.694 0 01-2.69 2.691z" fill="#fff"/></svg>