<svg width="37" height="37" fill="none" xmlns="http://www.w3.org/2000/svg"><g clip-path="url(#clip0)" fill="#fff"><path d="M22.16 12.936a.724.724 0 10.001-1.448.724.724 0 000 1.448zm-7.24 0a.724.724 0 100-1.448.724.724 0 000 1.448zm1.684 4.967c.608.286 1.26.43 1.936.43.661 0 1.3-.138 1.898-.413a.722.722 0 10-.605-1.313 3.082 3.082 0 01-1.293.282c-.462 0-.905-.099-1.318-.293a.722.722 0 10-.617 1.307z"/><path d="M34.508 29.251c0-3.974-4.534-7.09-8.42-7.238l-1.984-1.778c2.415-1.759 3.881-4.585 3.881-7.588v-4.77c0-4.383-3.584-7.95-7.99-7.95H17.1c-4.4 0-7.94 3.554-7.94 7.95v4.77a9.438 9.438 0 003.83 7.574l-1.997 1.792c-3.879.147-8.422 3.256-8.422 7.238v6.954c0 .4.325.723.725.723h30.49c.4 0 .723-.324.723-.723v-6.954zm-17.572 2.907h3.203l.76 3.325h-4.745l.782-3.325zm3.265-1.445H16.89l-.556-1.727 2.206-1.101 2.253 1.125-.591 1.703zm-1.661-5l-2.517-4.017a9.442 9.442 0 005.029.006l-2.512 4.012zm1.036 1.073l3.476-5.551 1.875 1.68-2.386 5.352-2.965-1.48zM17.099 1.373h2.896c3.607 0 6.542 2.917 6.542 6.504v.597l-1.36-1.954a.725.725 0 00-1.112-.093C22.593 7.93 20.89 8.6 18.54 8.6c-2.35 0-4.053-.67-5.526-2.173a.725.725 0 00-1.116.098l-1.29 1.887v-.535c0-3.587 2.912-6.504 6.49-6.504zm-6.491 11.274v-1.67l2.01-2.942c1.612 1.368 3.516 2.01 5.922 2.01 2.409 0 4.314-.644 5.925-2.014l2.072 2.977v1.639c0 4.327-3.544 7.949-7.99 7.949-4.432 0-7.94-3.61-7.94-7.95zm3.419 8.588l3.476 5.551-2.966 1.48-2.385-5.35 1.875-1.681zM4.019 29.25c0-2.977 3.626-5.548 6.794-5.781l2.71 6.075a.724.724 0 00.985.352l.516-.257.587 1.825-.944 4.018H4.019V29.25zm29.041 6.232H22.384l-.915-4.006.63-1.816.472.236a.726.726 0 00.986-.352l2.709-6.075c3.168.234 6.794 2.804 6.794 5.781v6.232z"/><path d="M27.953 32.158h-2.896a.723.723 0 100 1.445h2.896a.723.723 0 100-1.445zm2.857 0a.724.724 0 110 1.448.724.724 0 010-1.448z"/></g><defs><clipPath id="clip0"><rect width="37" height="37" fill="#fff"/></clipPath></defs></svg>