<svg width="37" height="37" fill="none" xmlns="http://www.w3.org/2000/svg"><g clip-path="url(#clip0)"><path d="M36.435 15.168c-.385-.461-.926-.725-1.485-.725h-.84v-.68c0-1.218-1.06-2.211-2.361-2.211H30.64v-1.253c0-.59-.252-1.165-.69-1.579-.87-.822-2.375-.822-3.246 0a2.19 2.19 0 00-.69 1.58v5.877h-15.03V10.3a2.19 2.19 0 00-.69-1.58c-.87-.822-2.375-.822-3.246 0a2.19 2.19 0 00-.69 1.58v1.252H5.116c-.584 0-1.137.212-1.556.595a2.04 2.04 0 00-.67 1.493v.803h-.832c-.562 0-1.105.265-1.49.728A2.54 2.54 0 000 16.797v3.385c0 .609.202 1.187.568 1.626.385.463.929.728 1.49.728h.833v.803c0 .558.244 1.103.67 1.494.418.383.97.594 1.555.594H6.36v1.253c0 .59.252 1.165.69 1.578a2.352 2.352 0 001.623.638 2.35 2.35 0 001.623-.638c.438-.414.69-.99.69-1.578v-5.878h15.03v5.878c0 .59.252 1.165.69 1.578a2.352 2.352 0 001.623.638 2.35 2.35 0 001.623-.638c.438-.414.69-.99.69-1.578v-1.253h1.108c1.301 0 2.36-.992 2.36-2.212v-.679h.841c.559 0 1.1-.265 1.485-.725a2.528 2.528 0 00.566-1.619v-3.405a2.53 2.53 0 00-.566-1.619zM2.058 21.38c-.22 0-.434-.11-.602-.312-.19-.229-.3-.552-.3-.886v-3.385c0-.335.11-.657.3-.886.168-.201.382-.312.602-.312h.833v5.781h-.833zm3.058 2.89c-.29 0-.573-.105-.774-.289a.87.87 0 01-.295-.642V13.64a.87.87 0 01.294-.643 1.16 1.16 0 01.775-.29H6.36V24.27H5.116zm4.712 2.41c0 .277-.116.538-.327.737-.433.41-1.225.41-1.658 0a1.01 1.01 0 01-.327-.737V10.3c0-.278.116-.54.326-.739.217-.204.52-.322.83-.322.31 0 .613.118.83.322.21.2.326.462.326.739v16.38zm1.156-7.034v-2.313h15.032v2.313H10.984zm18.5 7.034c0 .277-.116.538-.326.737-.434.41-1.225.41-1.659 0a1.01 1.01 0 01-.327-.737V10.3c0-.277.116-.54.326-.738.217-.205.52-.322.83-.322.31 0 .613.117.83.322.21.198.326.46.326.738v16.38zm3.47-3.465c0 .582-.54 1.056-1.205 1.056H30.64V12.708h1.108c.664 0 1.204.474 1.204 1.056v9.451zm2.89-3.024c0 .332-.109.652-.297.88-.167.2-.38.31-.597.31h-.84v-5.782h.84c.218 0 .43.11.597.31.189.226.297.547.297.878v3.404z" fill="#fff"/></g><defs><clipPath id="clip0"><rect width="37" height="37" fill="#fff"/></clipPath></defs></svg>