<svg width="37" height="37" fill="none" xmlns="http://www.w3.org/2000/svg"><path d="M23.125 25.438h-1.321a.66.66 0 100 1.32h1.321a.66.66 0 000-1.32z" fill="#fff"/><path d="M32.705 13.545c-.11 0-.22.005-.33.014V5.616A4.63 4.63 0 0027.75.991H9.25a4.63 4.63 0 00-4.625 4.625v7.943A4.3 4.3 0 000 17.839c0 1.482.75 2.833 1.982 3.619v8.715c0 .03.003.058.007.087a3.307 3.307 0 003.297 3.106v.66c0 1.094.889 1.983 1.982 1.983s1.982-.89 1.982-1.982v-.66h18.5v.66c0 1.093.89 1.982 1.982 1.982 1.093 0 1.982-.89 1.982-1.982v-.66a3.307 3.307 0 003.297-3.107.658.658 0 00.007-.087v-8.715A4.276 4.276 0 0037 17.839a4.3 4.3 0 00-4.295-4.294zM5.946 5.616A3.307 3.307 0 019.25 2.313h18.5a3.307 3.307 0 013.304 3.303v8.26a4.301 4.301 0 00-2.643 3.963v2.975a3.286 3.286 0 00-1.982-.662H10.57a3.29 3.29 0 00-1.982.662V17.84a4.301 4.301 0 00-2.643-3.964v-8.26zm1.983 28.41a.661.661 0 01-1.322 0v-.66H7.93v.66zm22.464 0a.662.662 0 01-1.322 0v-.66h1.322v.66zm3.663-13.539a.66.66 0 00-.36.589v8.986a1.985 1.985 0 01-1.982 1.983H5.286a1.984 1.984 0 01-1.982-1.983v-8.986a.66.66 0 00-.36-.588 2.963 2.963 0 01-1.623-2.649 2.976 2.976 0 012.974-2.973 2.977 2.977 0 012.973 2.973v5.617a3.307 3.307 0 003.303 3.303h8.59a.66.66 0 000-1.322h-8.59a1.984 1.984 0 01-1.982-1.982c0-1.092.89-1.982 1.982-1.982H26.43c1.093 0 1.982.89 1.982 1.982 0 1.093-.89 1.982-1.982 1.982h-.661a.66.66 0 000 1.322h.66a3.307 3.307 0 003.304-3.303v-5.617a2.977 2.977 0 012.973-2.973 2.977 2.977 0 012.974 2.973 2.963 2.963 0 01-1.623 2.648z" fill="#fff"/></svg>