<svg width="37" height="37" fill="none" xmlns="http://www.w3.org/2000/svg"><g clip-path="url(#clip0)" fill="#fff"><path d="M36.803 12.886C31.922 8.005 25.42 5.316 18.5 5.316c-6.921 0-13.421 2.688-18.303 7.57a.673.673 0 10.953.953C5.777 9.212 11.94 6.664 18.5 6.664c6.561 0 12.723 2.548 17.35 7.174a.672.672 0 00.953 0 .672.672 0 000-.952z"/><path d="M4.158 16.846a.673.673 0 10.953.953c7.382-7.383 19.394-7.383 26.777 0a.673.673 0 10.953-.953c-7.907-7.907-20.774-7.908-28.683 0z"/><path d="M18.5 16.515a14.582 14.582 0 00-10.38 4.293.673.673 0 10.953.953 13.244 13.244 0 019.427-3.898c3.565 0 6.913 1.384 9.427 3.898a.672.672 0 00.953 0 .673.673 0 000-.953 14.58 14.58 0 00-10.38-4.293zm0 6.339a4.42 4.42 0 00-4.414 4.415 4.42 4.42 0 004.414 4.415 4.42 4.42 0 004.415-4.415 4.42 4.42 0 00-4.415-4.415zm0 7.482a3.07 3.07 0 01-3.067-3.067A3.07 3.07 0 0118.5 24.2a3.071 3.071 0 013.067 3.068 3.07 3.07 0 01-3.067 3.067z"/></g><defs><clipPath id="clip0"><rect width="37" height="37" fill="#fff"/></clipPath></defs></svg>