<svg width="37" height="37" fill="none" xmlns="http://www.w3.org/2000/svg"><g clip-path="url(#clip0)" fill="#fff"><path d="M12.139 25.327a102.457 102.457 0 004.47 5.816h-3.042a.617.617 0 000 1.233h9.867a.617.617 0 100-1.233H20.39l.418-.508a101.316 101.316 0 004.053-5.308 54.189 54.189 0 004.074-6.565c1.259-2.473 1.898-4.526 1.898-6.102a12.325 12.325 0 00-3.612-8.733.617.617 0 10-.873.871A11.096 11.096 0 0129.6 12.66c0 1.38-.593 3.244-1.763 5.542a52.958 52.958 0 01-3.982 6.413 100.263 100.263 0 01-4.885 6.31.625.625 0 01-.94 0 99.751 99.751 0 01-4.885-6.31 52.96 52.96 0 01-3.98-6.413C7.991 15.904 7.4 14.04 7.4 12.66c0-4.467 2.671-8.5 6.784-10.244a11.17 11.17 0 018.64 0 .617.617 0 00.48-1.136c-6.279-2.648-13.517.294-16.167 6.573a12.288 12.288 0 00-.97 4.807c0 1.576.639 3.629 1.898 6.105a54.134 54.134 0 004.074 6.562z"/><path d="M18.5 7.093a.617.617 0 100-1.233 6.167 6.167 0 104.36 1.806.617.617 0 10-.871.872A4.933 4.933 0 1118.5 7.093zm18.268 26.869l-3.793-6.784a1.917 1.917 0 00-1.678-.968h-4.395a.617.617 0 000 1.233h4.395a.684.684 0 01.603.337l3.791 6.783a.555.555 0 01-.005.57.678.678 0 01-.597.327H1.912a.678.678 0 01-.596-.327.555.555 0 01-.006-.57l3.791-6.783a.683.683 0 01.602-.337h4.395a.617.617 0 100-1.233H5.703a1.918 1.918 0 00-1.679.968L.232 33.962a1.789 1.789 0 00.02 1.795 1.9 1.9 0 001.66.936h33.177a1.9 1.9 0 001.66-.936 1.788 1.788 0 00.019-1.795z"/><path d="M30.217 29.293H27.75a.62.62 0 00-.342.104l-1.85 1.233a.617.617 0 00.685 1.026l1.692-1.13h2.282a.617.617 0 100-1.233zm-3.7 4.317c0 .34.276.616.617.616h4.933a.617.617 0 100-1.233h-4.933a.617.617 0 00-.617.617zM11.1 31.76a.617.617 0 00.343-1.13l-1.85-1.233a.62.62 0 00-.343-.104H6.784a.617.617 0 100 1.233h2.281l1.695 1.13c.1.067.22.103.34.104zm-6.166 1.233a.617.617 0 000 1.233h4.933a.617.617 0 100-1.233H4.934z"/></g><defs><clipPath id="clip0"><rect width="37" height="37" fill="#fff"/></clipPath></defs></svg>