<svg width="37" height="37" fill="none" xmlns="http://www.w3.org/2000/svg"><g clip-path="url(#clip0)" fill="#fff"><path d="M36.918 31.996l-.33-1.168c-.686-2.09-2.694-1.882-2.694-1.882 0-1.028-.81-1.87-1.826-1.92V8.87c0-.952-.19-1.874-.566-2.742a.542.542 0 10-.995.431c.317.73.477 1.508.477 2.31v2.136h-2.15V8.871a3.689 3.689 0 00-3.685-3.685h-3.23a3.689 3.689 0 00-3.686 3.685v8.922c-.66-.516-1.38-.957-2.15-1.31V8.87a5.842 5.842 0 015.835-5.836h3.231a5.78 5.78 0 014.222 1.812.542.542 0 00.785-.748 6.859 6.859 0 00-5.007-2.148h-3.23a6.927 6.927 0 00-6.92 6.92v7.184a10.678 10.678 0 00-1.93-.449v-.966c0-1.033-.84-1.873-1.873-1.873H7.821c-1.033 0-1.874.84-1.874 1.873v.866H4.942A4.947 4.947 0 000 20.448v7.614a4.484 4.484 0 002.956 4.234 5.175 5.175 0 004.577 2.769c1.872 0 3.515-1 4.423-2.494h1.81s-.136 2.125 1.889 2.125h2.36a1.891 1.891 0 001.89-1.89v-.721a4.513 4.513 0 002.476-4.023v-1.777c0-2.922-1.17-5.576-3.064-7.52V8.872a2.604 2.604 0 012.601-2.601h3.231c1.434 0 2.6 1.167 2.6 2.6v18.156a1.925 1.925 0 00-1.825 1.92s-2.189-.112-2.693 1.882l-.332 1.168a2.104 2.104 0 00.35 1.858 2.104 2.104 0 001.691.841h9.937c.671 0 1.288-.306 1.692-.841a2.104 2.104 0 00.35-1.858zM13.07 16.701a9.718 9.718 0 018.1 8.021h-4.974a3.13 3.13 0 01-3.126-3.126v-4.895zm-6.04-2.06a.79.79 0 01.79-.79h3.376a.79.79 0 01.79.79v.872c-.128-.004-4.955-.007-4.955-.007v-.866zM4.943 16.59h1.005v3.685a2.443 2.443 0 01-2.44 2.44H1.084v-2.267a3.862 3.862 0 013.858-3.858zm13.073 17.02h-2.361c-.942 0-.805-1.04-.805-1.04h3.022a4.5 4.5 0 00.949-.101s.246 1.141-.805 1.141zm3.28-5.549a3.429 3.429 0 01-3.424 3.425h-5.42a5.149 5.149 0 00.252-1.593 5.177 5.177 0 00-5.17-5.171 5.17 5.17 0 00-2.67.74.542.542 0 00.56.929 4.079 4.079 0 012.11-.586 4.092 4.092 0 014.086 4.088 4.092 4.092 0 01-4.087 4.087 4.092 4.092 0 01-3.548-6.118.542.542 0 10-.94-.54c-.937 1.59-.654 3.181-.602 3.475a3.408 3.408 0 01-1.359-2.736V23.8h2.423a3.528 3.528 0 003.524-3.524V16.59s4.827.003 4.955.008v4.998a4.215 4.215 0 004.21 4.21h5.09c.007.159.01 2.256.01 2.256zm9.688-15.972v14.933h-2.15V12.09h2.15zm-3.976 16.856a.84.84 0 01.838-.839h4.126a.84.84 0 01.838.839v.037h-5.802v-.037zm8.697 4.254c-.198.261-.5.411-.828.411H24.94c-.328 0-.63-.15-.827-.411a1.028 1.028 0 01-.17-.908l.33-1.168a1.46 1.46 0 011.4-1.057h8.473a1.46 1.46 0 011.398 1.057l.331 1.168c.09.315.028.646-.17.908z"/><path d="M7.533 32.52a2.629 2.629 0 002.626-2.626 2.63 2.63 0 00-2.626-2.626 2.629 2.629 0 00-2.626 2.626 2.629 2.629 0 002.626 2.626zm0-4.168a1.543 1.543 0 010 3.084 1.543 1.543 0 010-3.084z"/></g><defs><clipPath id="clip0"><rect width="37" height="37" fill="#fff"/></clipPath></defs></svg>