<svg width="37" height="37" fill="none" xmlns="http://www.w3.org/2000/svg"><g clip-path="url(#clip0)" fill="#fff"><path d="M32.51 7.491L18.606.081a.691.691 0 00-.659.004L4.425 7.495a.692.692 0 00-.36.608v9.679a20.042 20.042 0 0012.013 18.342l1.877.818a.691.691 0 00.55.001l2.116-.913a20.002 20.002 0 0012.256-18.44V8.103a.693.693 0 00-.366-.612zM31.494 17.59a18.621 18.621 0 01-11.415 17.166l-.004.002-1.842.795-1.6-.698A18.655 18.655 0 015.45 17.782v-9.27L18.284 1.48l13.209 7.039v9.072z"/><path d="M13.176 17.333a.692.692 0 00-1.053.899l3.657 4.283a.692.692 0 00.963.087l8.517-6.93a.692.692 0 10-.874-1.073L16.394 21.1l-3.218-3.768z"/></g><defs><clipPath id="clip0"><rect width="37" height="37" fill="#fff"/></clipPath></defs></svg>