<svg width="37" height="37" fill="none" xmlns="http://www.w3.org/2000/svg"><path d="M28.477 6.361h-5.943v-1.15a.68.68 0 00-.68-.68h-6.709a.68.68 0 00-.68.68v1.15H8.522C3.823 6.361 0 10.184 0 14.883V24.99c0 4.124 3.022 7.48 6.736 7.48 3.634 0 7.252-2.716 8.067-6.052l1.224-5.015h5.089l1.842 5.085c1.215 3.354 4.73 5.981 8.003 5.981 3.33 0 6.039-3.355 6.039-7.479V14.883c0-4.699-3.824-8.522-8.523-8.522zm-12.653-.47h5.35v.47h-5.35v-.47zM35.64 24.989c0 3.375-2.1 6.12-4.68 6.12-2.692 0-5.708-2.28-6.724-5.086l-2.004-5.533a.68.68 0 00-.64-.448h-6.1a.68.68 0 00-.66.518l-1.35 5.534c-.675 2.765-3.701 5.015-6.747 5.015-2.964 0-5.376-2.745-5.376-6.12V14.883a7.17 7.17 0 017.162-7.162h19.956a7.17 7.17 0 017.162 7.162V24.99z" fill="#fff"/><path d="M28.171 13.132a1.28 1.28 0 100-2.561 1.28 1.28 0 000 2.561zm0 7.198a1.28 1.28 0 100-2.563 1.28 1.28 0 000 2.562zm3.599-3.598a1.282 1.282 0 100-2.564 1.282 1.282 0 000 2.564zm-7.197 0a1.282 1.282 0 100-2.563 1.282 1.282 0 000 2.563zM12.23 14.367H9.324V11.46a1.054 1.054 0 00-2.109 0v2.907H4.308a1.053 1.053 0 100 2.108h2.907v2.907a1.054 1.054 0 002.109 0v-2.907h2.906a1.054 1.054 0 000-2.108z" fill="#fff"/></svg>