<svg width="37" height="37" fill="none" xmlns="http://www.w3.org/2000/svg"><g clip-path="url(#clip0)" fill="#fff"><path d="M22.125 22.098a1.491 1.491 0 012.106 0 .616.616 0 00.871-.872 2.726 2.726 0 00-3.85 0 .617.617 0 00.873.872z"/><path d="M36.383 24.745H29.23l1.084-11.409a.617.617 0 00-.617-.678h-3.035l1.218-4.542 4.88-4.88A1.85 1.85 0 1030.143.618l-5.23 5.232a.591.591 0 00-.067.08c-.193.214-.334.47-.41.748l-1.603 5.98H10.738l-1.907-3.25a3.062 3.062 0 001.029-2.09 2.467 2.467 0 002.8-3.605A6.791 6.791 0 003.942.948L3.618.386a.617.617 0 10-1.068.617l.323.56A6.78 6.78 0 00.91 10.496a2.466 2.466 0 004.517-.597c0-.012 0-.023.005-.033.423.207.887.316 1.357.319a3.07 3.07 0 00.972-.166l2.14 3.646 1.963 20.61a3.084 3.084 0 003.083 2.801h10.337C31.751 37.07 36.992 31.83 37 25.361a.616.616 0 00-.617-.616zM25.625 6.999a.596.596 0 01.162-.27.597.597 0 00.058-.067l5.173-5.171a.617.617 0 01.872.872l-4.995 4.995a.609.609 0 00-.16.277l-1.35 5.023h-1.274l1.514-5.66zM23.98 17.426a7.292 7.292 0 00-.432-.054c-.028 0-.056 0-.085-.004a6.686 6.686 0 00-.58-.02h-.03l.924-3.457h1.278l-.95 3.55c-.042-.007-.084-.01-.125-.015zm-1.48-3.534l-.966 3.606a6.893 6.893 0 00-3.471 1.876 5.677 5.677 0 01-2.523 1.463l-4.077-6.945H22.5zM11.593 4.329a1.234 1.234 0 01-2.135 1.234A11.965 11.965 0 005.98 1.62a5.556 5.556 0 015.612 2.71zM4.237 9.581a1.233 1.233 0 01-2.259.299 5.546 5.546 0 01.455-6.221 11.97 11.97 0 001.68 4.987c.165.283.21.62.124.935zM5.18 8.03C3.488 5.095 3.356 2.675 4.008 2.298c.653-.377 2.684.948 4.378 3.881A1.851 1.851 0 115.18 8.03zm9.048 13.008a5.694 5.694 0 01-2.43-.454l-.418-4.397 2.848 4.851zm.717 14.808a1.853 1.853 0 01-1.85-1.685l-1.167-12.22a6.562 6.562 0 002.99.274l.584.994a.617.617 0 00.84.218.617.617 0 00.22-.843l-.384-.653a6.914 6.914 0 002.754-1.684 5.675 5.675 0 013.714-1.652l.092-.004a6.24 6.24 0 01.462 0l.116.005c.15.009.3.024.45.046l.108.015c.16.026.317.058.475.098A5.661 5.661 0 0127 20.247a.617.617 0 00.872-.872 6.879 6.879 0 00-2.58-1.622l1.04-3.861h2.69l-1.034 10.853H14.183a.617.617 0 00-.617.616 11.717 11.717 0 006.516 10.484h-5.137zm10.338 0a10.497 10.497 0 01-10.465-9.867h1.244c.06.92.26 1.826.588 2.688a.617.617 0 001.152-.44 8.025 8.025 0 01-.506-2.248h15.971a8.006 8.006 0 01-13.59 5.11.617.617 0 10-.863.881 9.238 9.238 0 0015.688-5.991h1.247a10.497 10.497 0 01-10.466 9.867z"/><path d="M20.966 29.061a.616.616 0 00.617-.616v-.617a.616.616 0 10-1.233 0v.617c0 .34.276.616.616.616zm2.467 1.85a.616.616 0 00.617-.616v-.617a.616.616 0 10-1.233 0v.617c0 .34.276.616.616.616zm6.783-1.85a.616.616 0 00.617-.616v-.617a.617.617 0 10-1.233 0v.617c0 .34.276.616.616.616zm-2.466 2.467c.34 0 .616-.276.616-.617v-.616a.617.617 0 10-1.233 0v.616c0 .34.276.617.617.617zm-1.85-2.467c.34 0 .617-.276.617-.616v-.617a.617.617 0 10-1.234 0v.617c0 .34.276.616.617.616z"/></g><defs><clipPath id="clip0"><rect width="37" height="37" fill="#fff"/></clipPath></defs></svg>