<svg width="37" height="37" fill="none" xmlns="http://www.w3.org/2000/svg"><path d="M30.833 6.533v-3.45A3.087 3.087 0 0027.75 0H3.083A3.087 3.087 0 000 3.083V16.65a3.077 3.077 0 002.765 3.052l2.318 6.017a3.084 3.084 0 003.986 1.769l14.475-5.577a8.915 8.915 0 00.768 7.915l.355.567v5.99c0 .341.276.617.616.617h11.1a.617.617 0 00.617-.617V16.028a8.07 8.07 0 00-2.363-5.684l-3.804-3.811zm0 3.688l1.872 4.858a1.85 1.85 0 01-1.062 2.391l-1.07.413c.17-.389.26-.809.26-1.233v-6.43zm-29.6 6.429V3.083a1.85 1.85 0 011.85-1.85H27.75a1.85 1.85 0 011.85 1.85v3.92h-.005l.005.014v9.633a1.876 1.876 0 01-.042.32l-5.649-5.65a3.29 3.29 0 00-4.748 4.55l2.408 2.63H3.083a1.85 1.85 0 01-1.85-1.85zm7.9 3.083l-4.385 1.689-.648-1.689h5.033zm-.508 6.603a1.85 1.85 0 01-2.391-1.06l-1.04-2.706 7.36-2.837v-.003H22.7l.801.873-14.876 5.733zm27.142 9.43H25.9v-4.933h9.867v4.934zm0-6.166H25.626l-.268-.427a7.69 7.69 0 01-.156-7.898.616.616 0 00-.08-.723l-5.054-5.513a2.057 2.057 0 012.97-2.844l9.826 9.824.872-.872-2.282-2.281.633-.247a3.084 3.084 0 001.768-3.984l-2.087-5.42 1.997 2.002a6.83 6.83 0 012.002 4.81V29.6z" fill="#fff"/><path d="M7.03 8.633c.886 0 1.603-.717 1.603-1.603V4.07c0-.886-.717-1.603-1.603-1.603H4.07c-.886 0-1.603.717-1.603 1.603v2.96c0 .886.717 1.603 1.603 1.603h2.96zM3.7 7.03v-.863h1.233V4.933H3.7V4.07a.37.37 0 01.37-.37h2.96a.37.37 0 01.37.37v.863H6.167v1.234H7.4v.863a.37.37 0 01-.37.37H4.07a.37.37 0 01-.37-.37zm-.617 3.453H5.55v1.234H3.083v-1.234zm0 3.7H5.55v1.234H3.083v-1.234zm11.1 0h2.467v1.234h-2.467v-1.234zm-7.4-3.7H9.25v1.234H6.783v-1.234zm3.7 0h2.467v1.234h-2.467v-1.234zm3.7 0h2.467v1.234h-2.467v-1.234zm11.717-7.4h1.233v1.85H25.9v-1.85zm-2.467 0h1.234v1.85h-1.234v-1.85zm-2.466 0H22.2v1.85h-1.233v-1.85zm-2.467 0h1.233v1.85H18.5v-1.85zm8.633 28.984h1.234V33.3h-1.234v-1.233z" fill="#fff"/></svg>