<svg width="37" height="37" fill="none" xmlns="http://www.w3.org/2000/svg"><path d="M10.252 12.363c-.3 0-.542.243-.542.542v1.312a.542.542 0 001.084 0v-1.312c0-.3-.243-.542-.542-.542zm14.501 0c-.3 0-.542.243-.542.542v1.312a.542.542 0 101.084 0v-1.312c0-.3-.243-.542-.542-.542zm-5.104 1.355a.542.542 0 00-.765.051c-.337.386-.84.607-1.382.607a1.826 1.826 0 01-1.381-.607.542.542 0 00-.816.714 2.91 2.91 0 002.197.977 2.91 2.91 0 002.198-.977.542.542 0 00-.051-.765z" fill="#fff"/><path d="M36.076 21.392c-1.415-1.415-2.371-4.543-2.765-9.046a55.646 55.646 0 01-.172-6.14 1.63 1.63 0 001.1-1.538V3.613c0-.897-.73-1.626-1.627-1.626H19.82v-.49A1.5 1.5 0 0018.323 0h-1.641a1.5 1.5 0 00-1.497 1.497v.49H2.392c-.897 0-1.626.73-1.626 1.626v1.055c0 .7.445 1.3 1.068 1.528-.019.665.016 16.908.016 16.908a1.63 1.63 0 00-1.084 1.533v1.054c0 .897.73 1.627 1.626 1.627h4.816L3.8 35.408A1.144 1.144 0 004.856 37h2.227c.462 0 .877-.275 1.057-.701l3.783-8.98h11.159l3.783 8.98c.18.426.594.701 1.057.701h2.227a1.144 1.144 0 001.056-1.592l-3.408-8.09h4.815c.897 0 1.627-.73 1.627-1.627v-1.054a1.63 1.63 0 00-1.085-1.533v-.786h2.538a.542.542 0 00.384-.926zM16.269 1.497c0-.228.185-.413.413-.413h1.641c.228 0 .413.185.413.413v.49H16.27v-.49zM7.14 35.877a.063.063 0 01-.058.039H4.856c-.008 0-.033 0-.052-.028a.058.058 0 01-.005-.059l3.585-8.51h2.363L7.14 35.877zm23.065-.048c.003.008.013.031-.005.059-.019.028-.044.028-.052.028h-2.227a.062.062 0 01-.058-.038l-3.606-8.56h2.363l3.585 8.511zm2.95-11.192v1.054c0 .3-.244.543-.543.543H2.393a.543.543 0 01-.543-.543v-1.054c0-.3.243-.543.542-.543h30.22c.3 0 .543.244.543.543zm-4.109-3.403a.542.542 0 10.044 1.084h2.98v.692H2.934v-5.067c.426 1.517.97 2.72 1.628 3.601.228.306.47.774.91.774h21.363a.542.542 0 00.587-.538v-.004a.552.552 0 00-.543-.542H5.705a4.521 4.521 0 01-.142-.167c-.053-.066-.095-.141-.155-.201-.939-1.281-1.64-3.431-2.06-6.284a43.797 43.797 0 01-.408-4.67 56.874 56.874 0 01-.024-3.618h3.151a.542.542 0 000-1.084H2.392a.543.543 0 01-.542-.542V3.613c0-.299.243-.542.542-.542h30.22c.3 0 .543.243.543.542v1.054c0 .3-.243.543-.542.543H8.235a.542.542 0 000 1.084H32.05c-.066 2.321-.123 10.94 2.515 14.94h-5.518z" fill="#fff"/></svg>