<svg width="37" height="37" fill="none" xmlns="http://www.w3.org/2000/svg"><path fill-rule="evenodd" clip-rule="evenodd" d="M22.639 25.451c.072-.03.144-.063.215-.096l.006-.002a12.56 12.56 0 005.861-5.474 12.602 12.602 0 001.537-6.019c.005-4.29-2.165-8.472-6.058-10.854a13.114 13.114 0 00-.615-.352l-.09-.048a12.6 12.6 0 00-.265-.136l-.082-.04a12.534 12.534 0 00-1.094-.474l-.024-.009a12.537 12.537 0 00-1.495-.458l-.12-.028a12.365 12.365 0 00-.606-.123l-.055-.01a12.574 12.574 0 00-2.165-.19c-2.189 0-4.353.57-6.26 1.646a12.58 12.58 0 00-1.87 1.295l-.048.04-.2.171c-.053.046-.104.094-.156.14a14.007 14.007 0 00-.67.654l-.039.041a12.516 12.516 0 00-.798.935l-.017.022c-.161.21-.317.426-.466.648l-.053.078c-.055.083-.11.168-.163.253l-.055.088a12.56 12.56 0 00-1.817 8.11l.009.073.013.113.043.332.006.003.006.043a12.74 12.74 0 003.558 6.972l-4.684 8.114c-.448.775-.55 1.736-.279 2.638.25.83.78 1.486 1.496 1.85a3.28 3.28 0 004.461-1.21l1.12-1.94a.678.678 0 00-1.173-.677l-1.12 1.94a1.926 1.926 0 01-2.664.684c-.387-.193-.68-.562-.822-1.037-.161-.537-.104-1.125.154-1.57l4.95-8.575a.676.676 0 00-.13-.839 11.246 11.246 0 01-3.283-5.475l13.92 8.037c-2.05.565-4.265.563-6.384-.107a.678.678 0 00-.791.307l-1.12 1.94a.677.677 0 101.173.678l.854-1.48a12.74 12.74 0 007.857-.42l.006.003.309-.129.095-.04.082-.036zM6.325 14.953A11.31 11.31 0 017.64 8.386l.009-.015c.039-.07.078-.142.119-.212.058-.1.118-.2.179-.299l.043-.068c.053-.084.106-.167.16-.249l.027-.039a11.362 11.362 0 015.305-4.236 11.365 11.365 0 016.467-.522l.152.033.134.032.217.055.094.024c.224.061.447.129.667.204l.014.004c.107.037.215.076.321.115l.033.012c.224.086.447.178.667.277l.01.005c.099.045.197.092.294.14l.075.036.235.121.081.043c.1.054.2.109.299.166 5.409 3.123 7.269 10.064 4.146 15.473-.065.113-.133.224-.202.334l-.048.078a11.326 11.326 0 01-4.913 4.236l-15.9-9.18zm22.417 12.004a4.439 4.439 0 00-4.433 4.434 4.439 4.439 0 004.433 4.433 4.438 4.438 0 004.434-4.433 4.438 4.438 0 00-4.434-4.434zm0 7.512a3.082 3.082 0 01-3.078-3.078 3.082 3.082 0 013.078-3.079 3.082 3.082 0 013.079 3.079 3.082 3.082 0 01-3.079 3.078z" fill="#fff"/><path fill-rule="evenodd" clip-rule="evenodd" d="M11.495 28.884a.679.679 0 000 1.355.679.679 0 00.677-.678.679.679 0 00-.677-.677z" fill="#fff"/></svg>