<svg width="37" height="37" fill="none" xmlns="http://www.w3.org/2000/svg"><g clip-path="url(#clip0)" fill="#fff"><path d="M18.5 16.033c.778 0 1.455-.292 1.85-.51.395.218 1.072.51 1.85.51 1.148 0 2.432-.652 2.98-1.507.054-.082 1.337-2.043 1.337-5.276A4.321 4.321 0 0022.2 4.933c-.697 0-1.333.256-1.85.528-.517-.272-1.152-.528-1.85-.528a4.321 4.321 0 00-4.317 4.317c0 3.654 1.137 5.073 1.384 5.338.558.702 1.702 1.445 2.933 1.445zm0-9.866c.55 0 1.113.285 1.541.533a.615.615 0 00.618 0c.429-.248.991-.533 1.541-.533 1.7 0 3.083 1.383 3.083 3.083 0 2.838-1.119 4.576-1.136 4.6-.287.45-1.158.95-1.947.95-.795 0-1.477-.491-1.482-.495a.615.615 0 00-.736 0c-.007.005-.687.495-1.482.495-.785 0-1.606-.512-1.979-.994a.785.785 0 00-.047-.054c-.01-.011-1.057-1.158-1.057-4.502 0-1.7 1.383-3.083 3.083-3.083zm1.322-2.149a.616.616 0 101.056-.635L19.028.299a.616.616 0 10-1.056.635l1.85 3.084zm1.925-.089c.043.014.436.14.957.14.738 0 1.38-.251 1.854-.726 1.128-1.128.608-2.743.585-2.811a.618.618 0 00-.39-.39 3.276 3.276 0 00-.958-.14c-.738 0-1.379.25-1.853.725-1.129 1.13-.608 2.743-.585 2.812a.617.617 0 00.39.39zm1.067-2.33c.241-.242.571-.364.98-.364.088 0 .17.005.242.014.038.332.02.85-.35 1.222-.242.242-.573.365-.982.365a2.21 2.21 0 01-.241-.014c-.038-.333-.02-.852.35-1.223zM35.15 17.267H5.55c-1.02 0-1.85.83-1.85 1.85v2.466a.617.617 0 001.233 0v-2.466c0-.34.277-.617.617-.617H7.4v3.083a.617.617 0 001.233 0V18.5h16.034v3.083a.617.617 0 001.233 0V18.5h6.166v3.083a.617.617 0 001.234 0V18.5h1.85c.34 0 .616.277.616.617v4.316h-1.85a.617.617 0 00-.616.617v5.55h-.617a.617.617 0 000 1.233h1.85v4.317c0 .34-.277.617-.617.617H14.8v-3.084a.617.617 0 00-1.233 0v3.084h-1.234v-3.084a.617.617 0 00-1.233 0v3.084H9.867v-3.084a.617.617 0 00-1.234 0v3.084h-5.55a.618.618 0 01-.616-.617v-2.467a.617.617 0 00-1.233 0v2.467c0 1.02.83 1.85 1.85 1.85h30.833c1.02 0 1.85-.83 1.85-1.85v-4.317c0-.8-.635-1.233-1.234-1.233v-4.933h1.234c.598 0 1.233-.433 1.233-1.234v-4.316c0-1.02-.83-1.85-1.85-1.85z"/><path d="M24.05 30.833a.617.617 0 000-1.233h-6.783v-4.933H25.9v9.25a.617.617 0 00.959.513l1.508-1.005 1.508 1.005a.615.615 0 00.958-.513v-9.25h.617a.617.617 0 000-1.234H1.85A1.83 1.83 0 000 25.284v3.7c0 1.02.83 1.85 1.85 1.85h22.2zm3.083-6.166H29.6v8.097l-.891-.594a.617.617 0 00-.685 0l-.89.594v-8.097zm-19.733 0h8.633V29.6H7.4v-4.933zm-6.167 4.316v-3.7c0-.351.265-.616.617-.616h4.317V29.6H1.85a.61.61 0 01-.617-.617z"/><path d="M12.95 25.9a.617.617 0 00-.617.617v1.233a.617.617 0 001.234 0v-1.233a.617.617 0 00-.617-.617zm-2.467 0a.617.617 0 00-.616.617v1.233a.617.617 0 001.233 0v-1.233a.617.617 0 00-.617-.617z"/></g><defs><clipPath id="clip0"><rect width="37" height="37" fill="#fff"/></clipPath></defs></svg>