<svg width="37" height="37" fill="none" xmlns="http://www.w3.org/2000/svg"><path d="M29.34 14.237V10.84C29.34 4.863 24.477 0 18.5 0 12.523 0 7.66 4.863 7.66 10.84v3.397a3.62 3.62 0 00-2.89 3.54v4.103a.723.723 0 101.445 0v-4.103a2.17 2.17 0 012.168-2.168h20.234a2.17 2.17 0 012.168 2.168v15.61c0 .942-.604 1.745-1.445 2.044v-4.357a.723.723 0 10-1.445 0v4.48H8.383a2.17 2.17 0 01-2.168-2.167v-5.71a.723.723 0 10-1.445 0v5.71A3.617 3.617 0 008.383 37h20.234a3.617 3.617 0 003.613-3.613v-15.61a3.62 3.62 0 00-2.89-3.54zm-16.332-.073V10.84A5.498 5.498 0 0118.5 5.348a5.498 5.498 0 015.492 5.492v3.324H13.008zm12.43 0V10.84A6.945 6.945 0 0018.5 3.902a6.945 6.945 0 00-6.938 6.938v3.324H9.105V10.84c0-5.18 4.215-9.395 9.395-9.395s9.395 4.215 9.395 9.395v3.324h-2.457z" fill="#fff"/><path d="M5.492 25.473c.19 0 .377-.077.511-.212a.728.728 0 00.212-.51.727.727 0 00-.723-.724.727.727 0 00-.722.723c0 .19.077.377.211.511a.727.727 0 00.511.212zM18.5 33.098a2.17 2.17 0 002.168-2.168v-3.838a3.883 3.883 0 001.744-3.25 3.907 3.907 0 00-3.903-3.903 3.907 3.907 0 00-3.902 3.903c0 1.314.65 2.518 1.725 3.238v3.85a2.17 2.17 0 002.168 2.168zm-2.448-9.256a2.46 2.46 0 012.457-2.457 2.46 2.46 0 012.457 2.457c0 .93-.516 1.77-1.348 2.192a.723.723 0 00-.395.644v4.252a.723.723 0 01-1.446 0v-4.261a.722.722 0 00-.391-.643 2.45 2.45 0 01-1.334-2.184zm12.565 4.992a.727.727 0 00.723-.723.727.727 0 00-.723-.722.728.728 0 00-.51.211.729.729 0 00-.212.511c0 .19.077.377.211.511a.729.729 0 00.511.212z" fill="#fff"/></svg>