<svg width="37" height="37" fill="none" xmlns="http://www.w3.org/2000/svg"><path d="M36.383 33.3h-1.85V21.583a.617.617 0 00-1.121-.353l-8.634 12.333a.617.617 0 00.505.97H33.3v1.85a.617.617 0 001.233 0v-1.85h1.85a.617.617 0 100-1.233zm-3.083 0h-6.833l6.833-9.76v9.76z" fill="#fff"/><path d="M25.283 35.767h-7.3l6.787-7.993a.65.65 0 00.043-.057 4.29 4.29 0 00-.968-5.824 4.933 4.933 0 00-7.812 4.007.617.617 0 001.234 0 3.7 3.7 0 015.858-3.006 3.044 3.044 0 01.678 4.11l-7.623 8.98A.617.617 0 0016.65 37h8.633a.617.617 0 100-1.233z" fill="#fff"/><path d="M16.664 32.695a.617.617 0 00-.593-.64c-8.046-.298-14.503-6.744-14.816-14.788H3.7a.617.617 0 000-1.234H1.255c.308-8.03 6.748-14.47 14.778-14.777v1.827a.617.617 0 001.234 0V1.256c7.92.306 14.313 6.578 14.77 14.491l-2.405-2.405a.617.617 0 00-.872.872l3.442 3.442a.6.6 0 00.243.177.734.734 0 00.074.018.612.612 0 00.13.032h.036a.592.592 0 00.138-.027.58.58 0 00.075-.015.608.608 0 00.223-.139l3.489-3.488a.617.617 0 00-.872-.872l-2.465 2.463C32.833 6.966 25.543.022 16.693.01 16.679.008 16.666 0 16.65 0c-.015 0-.028.008-.044.009C7.445.02.021 7.445.01 16.606c0 .016-.009.029-.009.044 0 .015.008.028.009.044.015 8.935 7.087 16.262 16.016 16.594h.023a.617.617 0 00.616-.593z" fill="#fff"/><path d="M24.935 8.365a.617.617 0 00-.872 0l-6.627 6.626a1.932 1.932 0 00-1.573 0l-3.137-3.137a.617.617 0 00-.872.872l3.131 3.131a1.847 1.847 0 002.973 2.102 1.83 1.83 0 00.356-2.101l6.62-6.62a.617.617 0 000-.873zm-7.849 8.72v.001a.63.63 0 01-.872 0 .617.617 0 11.872 0z" fill="#fff"/></svg>