<svg width="25" height="25" fill="none" xmlns="http://www.w3.org/2000/svg"><path d="M12.5 15.002a2.506 2.506 0 002.503-2.502c0-.545-.178-1.048-.473-1.459a2.5 2.5 0 00-2.03-1.043c-.835 0-1.574.412-2.03 1.043a2.49 2.49 0 00-.473 1.458 2.504 2.504 0 002.502 2.503zm5.464-5.563v-2.41l-.314.001-2.096.007.008 2.41 2.402-.008z" fill="inherit"/><path d="M12.5 0C5.608 0 0 5.608 0 12.5S5.608 25 12.5 25 25 19.392 25 12.5 19.393 0 12.5 0zm7.109 11.041v5.82a2.75 2.75 0 01-2.748 2.749H8.14a2.75 2.75 0 01-2.748-2.748V8.139A2.75 2.75 0 018.14 5.392h8.722a2.75 2.75 0 012.748 2.747v2.902z" fill="inherit"/><path d="M16.389 12.5a3.893 3.893 0 01-3.889 3.889 3.893 3.893 0 01-3.888-3.89c0-.515.103-1.008.286-1.458H6.776v5.82c0 .753.61 1.362 1.362 1.362h8.722c.751 0 1.363-.609 1.363-1.361v-5.82H16.1c.184.45.289.942.289 1.458z" fill="inherit"/></svg>