<svg width="37" height="37" fill="none" xmlns="http://www.w3.org/2000/svg"><g clip-path="url(#clip0)" fill="#fff"><path d="M29.545 12.649H27.08v-.197a.59.59 0 10-1.18 0v13.3a.59.59 0 101.18 0v-.197h2.465a2.739 2.739 0 002.736-2.736v-7.435a2.739 2.739 0 00-2.736-2.735zm1.555 10.17c0 .857-.698 1.555-1.555 1.555H27.08V13.83h2.465c.857 0 1.555.697 1.555 1.554v7.435z"/><path d="M29.545 9.5H27.08V6.86a.59.59 0 00-.59-.59h-.278a4.62 4.62 0 00-5.799-3.86A6.8 6.8 0 0015.193 0a6.8 6.8 0 00-5.22 2.41 4.62 4.62 0 00-5.799 3.86h-.278a.59.59 0 00-.59.59v24.097a3.206 3.206 0 00-1.736 2.844A3.202 3.202 0 004.77 37h20.848a3.202 3.202 0 003.199-3.199 3.206 3.206 0 00-1.736-2.844v-2.254h2.465a5.891 5.891 0 005.885-5.884v-7.435A5.891 5.891 0 0029.545 9.5zM8.75 3.425c.419 0 .829.076 1.219.224a.59.59 0 00.682-.197 5.636 5.636 0 014.542-2.271 5.64 5.64 0 014.543 2.27.59.59 0 00.681.198 3.44 3.44 0 014.601 2.62H5.368A3.44 3.44 0 018.75 3.425zM34.249 22.82a4.709 4.709 0 01-4.704 4.704H26.49a.59.59 0 00-.59.59v3.23c0 .25.157.473.392.557a2.022 2.022 0 011.343 1.901 2.02 2.02 0 01-2.018 2.018H4.77a2.02 2.02 0 01-2.018-2.018c0-.852.54-1.616 1.343-1.901a.59.59 0 00.393-.556V7.45H25.9v2.64c0 .326.264.59.59.59h3.055a4.709 4.709 0 014.704 4.704v7.435z"/><path d="M17.043 30.753H8.62a1.773 1.773 0 01-1.772-1.771v-8.658a.59.59 0 10-1.18 0v8.658a2.955 2.955 0 002.952 2.952h8.423a.59.59 0 000-1.18zm4.133-7.554a.59.59 0 100-1.18.59.59 0 000 1.18zm0 2.361a.59.59 0 100-1.18.59.59 0 000 1.18z"/><path d="M24.128 8.63a.59.59 0 00-.59.591v5.79H6.848V9.22a.59.59 0 00-1.18 0v8.742a.59.59 0 001.18 0V16.19h16.69v12.79c0 .978-.795 1.772-1.771 1.772h-2.362a.59.59 0 000 1.181h2.362a2.955 2.955 0 002.952-2.952V9.222a.59.59 0 00-.59-.591z"/></g><defs><clipPath id="clip0"><rect width="37" height="37" fill="#fff"/></clipPath></defs></svg>