<svg width="37" height="37" fill="none" xmlns="http://www.w3.org/2000/svg"><g clip-path="url(#clip0)" fill="#fff"><path d="M34.394 7.821h-6.908V3.923a.785.785 0 00-.784-.785H10.298a.785.785 0 00-.784.785v3.898H2.606A2.61 2.61 0 000 10.428v12.49a2.61 2.61 0 002.606 2.606h6.908v7.553c0 .433.351.785.784.785h16.404a.785.785 0 00.784-.785v-7.553h6.908A2.61 2.61 0 0037 22.918v-12.49a2.61 2.61 0 00-2.606-2.607zm-6.908 1.57h1.872v2.195h-1.872V9.39zM11.083 4.707h14.834v6.878H11.083V4.708zM7.643 9.39h1.87v2.196h-1.87V9.39zm18.274 22.902H11.083V21.96h14.834v10.332zm9.514-9.374c0 .572-.465 1.037-1.037 1.037h-6.908V21.96h1.431a.785.785 0 000-1.569H8.084a.785.785 0 000 1.57h1.43v1.994H2.607a1.038 1.038 0 01-1.037-1.037v-12.49c0-.572.465-1.038 1.037-1.038h3.467v2.98c0 .434.351.785.785.785h23.284a.785.785 0 00.785-.784V9.39h3.467c.572 0 1.037.465 1.037 1.037v12.49z"/><path d="M4.972 16.828a.983.983 0 100-1.966.983.983 0 000 1.966zm13.3 11.099H14.61a.785.785 0 000 1.57h3.662a.785.785 0 000-1.57zm4.118-3.972h-7.78a.785.785 0 000 1.569h7.78a.785.785 0 000-1.57z"/></g><defs><clipPath id="clip0"><rect width="37" height="37" fill="#fff"/></clipPath></defs></svg>