<svg width="9" height="9" fill="none" xmlns="http://www.w3.org/2000/svg"><g clip-path="url(#clip0)" fill="#7AC5AF"><path d="M.864 3.144c.114.08.457.319 1.03.716.572.396 1.01.702 1.315.916l.214.153a5.207 5.207 0 00.532.354c.102.06.198.106.289.136.09.03.174.045.251.045h.01c.077 0 .16-.015.251-.045.09-.03.187-.075.289-.135a5.305 5.305 0 00.532-.355c.11-.078.18-.13.214-.153l2.35-1.632a2.37 2.37 0 00.613-.618c.164-.24.246-.494.246-.758a.77.77 0 00-.239-.568.776.776 0 00-.565-.236H.804c-.258 0-.457.087-.596.261A1.014 1.014 0 000 1.878c0 .211.092.44.276.686.184.246.38.44.588.58z"/><path d="M8.498 3.681a106.087 106.087 0 00-2.501 1.733c-.191.14-.346.25-.465.329a2.866 2.866 0 01-.474.241 1.445 1.445 0 01-.553.123h-.01c-.17 0-.355-.04-.552-.123a2.868 2.868 0 01-.475-.241 11.89 11.89 0 01-.465-.329A100.56 100.56 0 00.507 3.681 2.66 2.66 0 010 3.244v3.988c0 .221.079.41.236.568a.774.774 0 00.568.236h7.392c.221 0 .41-.079.568-.236A.774.774 0 009 7.232V3.244a2.77 2.77 0 01-.502.437z"/></g><defs><clipPath id="clip0"><rect width="9" height="9" fill="#fff"/></clipPath></defs></svg>