<svg width="37" height="37" fill="none" xmlns="http://www.w3.org/2000/svg"><path d="M32.45 0H4.55A4.25 4.25 0 00.302 4.246v20.623a4.25 4.25 0 004.246 4.246h6.089c0 1.08-.237 3.552-2.179 5.143a1.213 1.213 0 00.83 2.158c3.002-.204 8.162-1.449 9.676-7.301H32.45a4.25 4.25 0 004.246-4.246V4.246A4.25 4.25 0 0032.45 0zm3.034 24.869a3.036 3.036 0 01-3.033 3.033c-14.76 0-13.959-.02-14.133.036a.653.653 0 00-.412.443c-1.178 5.5-5.957 6.637-8.678 6.815 3.033-2.487 2.615-6.582 2.596-6.754 0-.007-.05-.172-.06-.197a.937.937 0 00-.136-.182c-.245-.222.034-.161-7.079-.161a3.036 3.036 0 01-3.033-3.033V4.246A3.036 3.036 0 014.55 1.213h27.902a3.036 3.036 0 013.033 3.033v20.623z" fill="#fff"/><path d="M30.631 16.984a1.82 1.82 0 001.82-1.82V13.95a1.82 1.82 0 00-1.82-1.82h-1.213a3.038 3.038 0 00-2.426-2.972V7.885a1.82 1.82 0 00-1.82-1.82H23.96a1.82 1.82 0 00-1.82 1.82v1.213h-1.213V7.885a1.82 1.82 0 00-1.82-1.82h-1.213a1.82 1.82 0 00-1.82 1.82v1.213h-1.212V7.885a1.82 1.82 0 00-1.82-1.82h-1.213a1.82 1.82 0 00-1.82 1.82V9.16a3.038 3.038 0 00-2.426 2.972H6.369a1.82 1.82 0 00-1.82 1.82v1.213a1.82 1.82 0 001.82 1.82h1.213a3.038 3.038 0 002.426 2.972v1.274a1.82 1.82 0 001.82 1.82h1.213a1.82 1.82 0 001.82-1.82v-1.214h1.213v1.214a1.82 1.82 0 001.82 1.82h1.213a1.82 1.82 0 001.82-1.82v-1.214h1.212v1.214a1.82 1.82 0 001.82 1.82h1.213a1.82 1.82 0 001.82-1.82v-1.274a3.038 3.038 0 002.426-2.972h1.213zm0-3.64c.335 0 .607.272.607.607v1.213a.607.607 0 01-.607.607h-1.213v-2.427h1.213zm-7.279-5.459c0-.335.272-.606.607-.606h1.213c.335 0 .607.271.607.606v1.213h-2.427V7.885zm-6.065 0c0-.335.271-.606.607-.606h1.213c.335 0 .606.271.606.606v1.213h-2.426V7.885zm-6.066 0c0-.335.272-.606.607-.606h1.213c.335 0 .607.271.607.606v1.213H11.22V7.885zM6.37 15.771a.607.607 0 01-.607-.607V13.95c0-.335.272-.607.607-.607h1.213v2.427H6.369zm7.279 5.459a.607.607 0 01-.607.606h-1.213a.607.607 0 01-.607-.606v-1.214h2.427v1.214zm6.065 0a.606.606 0 01-.606.606h-1.213a.607.607 0 01-.607-.606v-1.214h2.426v1.214zm6.066 0a.607.607 0 01-.607.606H23.96a.606.606 0 01-.607-.606v-1.214h2.427v1.214zm2.426-4.246a1.82 1.82 0 01-1.82 1.82h-15.77a1.82 1.82 0 01-1.82-1.82V12.13a1.82 1.82 0 011.82-1.82h15.77a1.82 1.82 0 011.82 1.82v4.853zM5.156 3.033a.607.607 0 00-.607-.607h-.606a.607.607 0 100 1.213h.606a.607.607 0 00.607-.606zm1.819.607h3.033a.607.607 0 100-1.214H6.975a.607.607 0 100 1.213zm20.623 21.836h-.606a.606.606 0 100 1.213h.606a.607.607 0 000-1.213zm5.459 0h-3.032a.607.607 0 100 1.213h3.032a.607.607 0 000-1.213z" fill="#fff"/></svg>