<?xml version="1.0" encoding="UTF-8"?><!DOCTYPE svg PUBLIC "-//W3C//DTD SVG 1.1//EN" "http://www.w3.org/Graphics/SVG/1.1/DTD/svg11.dtd"><svg xmlns="http://www.w3.org/2000/svg" xmlns:xlink="http://www.w3.org/1999/xlink"><defs><clipPath id="clip0"><path fill="#fff" d="M0 0h37v37H0z"/></clipPath><clipPath id="clip0"><path fill="#fff" d="M0 0h37v37H0z"/></clipPath><clipPath id="clip0"><path fill="#fff" d="M0 0h37v37H0z"/></clipPath><clipPath id="clip0"><path fill="#fff" d="M0 0h37v37H0z"/></clipPath><clipPath id="clip0"><path fill="#fff" d="M0 0h37v37H0z"/></clipPath><clipPath id="clip0"><path fill="#fff" d="M0 0h37v37H0z"/></clipPath><clipPath id="clip0"><path fill="#fff" d="M0 0h37v37H0z"/></clipPath><clipPath id="clip0"><path fill="#fff" d="M0 0h37v37H0z"/></clipPath><clipPath id="clip0"><path fill="#fff" d="M0 0h8v8H0z"/></clipPath><clipPath id="clip0"><path fill="#fff" d="M0 0h37v37H0z"/></clipPath><clipPath id="clip0"><path fill="#fff" d="M0 0h37v37H0z"/></clipPath><clipPath id="clip0"><path fill="#fff" d="M0 0h37v37H0z"/></clipPath></defs><symbol id="icon_armchair"><path d="M23.125 25.438h-1.321a.66.66 0 100 1.32h1.321a.66.66 0 000-1.32z" fill="#fff"/><path d="M32.705 13.545c-.11 0-.22.005-.33.014V5.616A4.63 4.63 0 0027.75.991H9.25a4.63 4.63 0 00-4.625 4.625v7.943A4.3 4.3 0 000 17.839c0 1.482.75 2.833 1.982 3.619v8.715c0 .03.003.058.007.087a3.307 3.307 0 003.297 3.106v.66c0 1.094.889 1.983 1.982 1.983s1.982-.89 1.982-1.982v-.66h18.5v.66c0 1.093.89 1.982 1.982 1.982 1.093 0 1.982-.89 1.982-1.982v-.66a3.307 3.307 0 003.297-3.107.658.658 0 00.007-.087v-8.715A4.276 4.276 0 0037 17.839a4.3 4.3 0 00-4.295-4.294zM5.946 5.616A3.307 3.307 0 019.25 2.313h18.5a3.307 3.307 0 013.304 3.303v8.26a4.301 4.301 0 00-2.643 3.963v2.975a3.286 3.286 0 00-1.982-.662H10.57c-.743 0-1.43.247-1.982.662V17.84a4.301 4.301 0 00-2.643-3.964V5.616zm1.983 28.41a.661.661 0 01-1.322 0v-.66H7.93v.66zm22.464 0a.662.662 0 01-1.322 0v-.66h1.322v.66zm3.663-13.539a.66.66 0 00-.36.589v8.986c0 1.093-.889 1.983-1.982 1.983H5.286a1.984 1.984 0 01-1.982-1.983v-8.986a.66.66 0 00-.36-.588 2.963 2.963 0 01-1.623-2.649 2.976 2.976 0 012.974-2.973 2.977 2.977 0 012.973 2.973v5.617a3.307 3.307 0 003.303 3.303h8.59a.66.66 0 000-1.322h-8.59a1.984 1.984 0 01-1.982-1.982c0-1.092.89-1.982 1.982-1.982H26.43c1.093 0 1.982.89 1.982 1.982 0 1.093-.89 1.982-1.982 1.982h-.661a.66.66 0 000 1.322h.66a3.307 3.307 0 003.304-3.303v-5.617a2.977 2.977 0 012.973-2.973 2.977 2.977 0 012.974 2.973 2.963 2.963 0 01-1.623 2.648z" fill="#fff"/></symbol><symbol id="icon_beer"><g clip-path="url(#clip0)" fill="#fff"><path d="M29.545 12.649H27.08v-.197a.59.59 0 10-1.18 0v13.3a.59.59 0 101.18 0v-.197h2.465a2.739 2.739 0 002.736-2.736v-7.435a2.739 2.739 0 00-2.736-2.735zm1.555 10.17c0 .857-.698 1.555-1.555 1.555H27.08V13.83h2.465c.857 0 1.555.697 1.555 1.554v7.435z"/><path d="M29.545 9.5H27.08V6.86a.59.59 0 00-.59-.59h-.278a4.62 4.62 0 00-5.799-3.86A6.8 6.8 0 0015.193 0a6.8 6.8 0 00-5.22 2.41 4.62 4.62 0 00-5.799 3.86h-.278a.59.59 0 00-.59.59v24.097a3.206 3.206 0 00-1.736 2.844A3.202 3.202 0 004.77 37h20.848a3.202 3.202 0 003.199-3.199 3.206 3.206 0 00-1.736-2.844v-2.254h2.465a5.891 5.891 0 005.885-5.884v-7.435A5.891 5.891 0 0029.545 9.5zM8.75 3.425c.419 0 .829.076 1.219.224a.59.59 0 00.682-.197 5.636 5.636 0 014.542-2.271c1.802 0 3.458.828 4.543 2.27a.59.59 0 00.681.198 3.44 3.44 0 014.601 2.62H5.368A3.44 3.44 0 018.75 3.425zM34.249 22.82a4.709 4.709 0 01-4.704 4.704H26.49a.59.59 0 00-.59.59v3.23c0 .25.157.473.392.557a2.022 2.022 0 011.343 1.901 2.02 2.02 0 01-2.018 2.018H4.77a2.02 2.02 0 01-2.018-2.018c0-.852.54-1.616 1.343-1.901a.59.59 0 00.393-.556V7.45H25.9v2.64c0 .326.264.59.59.59h3.055a4.709 4.709 0 014.704 4.704v7.435z"/><path d="M17.043 30.753H8.62a1.773 1.773 0 01-1.772-1.771v-8.658a.59.59 0 10-1.18 0v8.658a2.955 2.955 0 002.952 2.952h8.423a.59.59 0 000-1.18zM21.176 23.199a.59.59 0 100-1.18.59.59 0 000 1.18zM21.176 25.56a.59.59 0 100-1.18.59.59 0 000 1.18z"/><path d="M24.128 8.63a.59.59 0 00-.59.591v5.79H6.848V9.22a.59.59 0 00-1.18 0v8.742a.59.59 0 001.18 0V16.19h16.69v12.79c0 .978-.795 1.772-1.771 1.772h-2.362a.59.59 0 000 1.181h2.362a2.955 2.955 0 002.952-2.952V9.222a.59.59 0 00-.59-.591z"/></g></symbol><symbol id="icon_books"><g clip-path="url(#clip0)" fill="#fff"><path d="M18.5 16.033c.778 0 1.455-.292 1.85-.51.395.218 1.072.51 1.85.51 1.148 0 2.432-.652 2.98-1.507.054-.082 1.337-2.043 1.337-5.276A4.321 4.321 0 0022.2 4.933c-.697 0-1.333.256-1.85.528-.517-.272-1.152-.528-1.85-.528a4.321 4.321 0 00-4.317 4.317c0 3.654 1.137 5.073 1.384 5.338.558.702 1.702 1.445 2.933 1.445zm0-9.866c.55 0 1.113.285 1.541.533a.615.615 0 00.618 0c.429-.248.991-.533 1.541-.533 1.7 0 3.083 1.383 3.083 3.083 0 2.838-1.119 4.576-1.136 4.6-.287.45-1.158.95-1.947.95-.795 0-1.477-.491-1.482-.495a.615.615 0 00-.736 0c-.007.005-.687.495-1.482.495-.785 0-1.606-.512-1.979-.994a.785.785 0 00-.047-.054c-.01-.011-1.057-1.158-1.057-4.502 0-1.7 1.383-3.083 3.083-3.083zM19.822 4.018a.616.616 0 101.056-.635L19.028.299a.616.616 0 10-1.056.635l1.85 3.084zM21.747 3.929c.043.014.436.14.957.14.738 0 1.38-.251 1.854-.726 1.128-1.128.608-2.743.585-2.811a.618.618 0 00-.39-.39 3.276 3.276 0 00-.958-.14c-.738 0-1.379.25-1.853.725-1.129 1.13-.608 2.743-.585 2.812a.617.617 0 00.39.39zm1.067-2.33c.241-.242.571-.364.98-.364.088 0 .17.005.242.014.038.332.02.85-.35 1.222-.242.242-.573.365-.982.365a2.21 2.21 0 01-.241-.014c-.038-.333-.02-.852.35-1.223zM35.15 17.267H5.55c-1.02 0-1.85.83-1.85 1.85v2.466a.617.617 0 001.233 0v-2.466c0-.34.277-.617.617-.617H7.4v3.083a.617.617 0 001.233 0V18.5h16.034v3.083a.617.617 0 001.233 0V18.5h6.166v3.083a.617.617 0 001.234 0V18.5h1.85c.34 0 .616.277.616.617v4.316h-1.85a.617.617 0 00-.616.617v5.55h-.617a.617.617 0 000 1.233h1.85v4.317c0 .34-.277.617-.617.617H14.8v-3.084a.617.617 0 00-1.233 0v3.084h-1.234v-3.084a.617.617 0 00-1.233 0v3.084H9.867v-3.084a.617.617 0 00-1.234 0v3.084h-5.55a.618.618 0 01-.616-.617v-2.467a.617.617 0 00-1.233 0v2.467c0 1.02.83 1.85 1.85 1.85h30.833c1.02 0 1.85-.83 1.85-1.85v-4.317c0-.8-.635-1.233-1.234-1.233v-4.933h1.234c.598 0 1.233-.433 1.233-1.234v-4.316c0-1.02-.83-1.85-1.85-1.85z"/><path d="M24.05 30.833a.617.617 0 000-1.233h-6.783v-4.933H25.9v9.25a.617.617 0 00.959.513l1.508-1.005 1.508 1.005a.615.615 0 00.958-.513v-9.25h.617a.617.617 0 000-1.234H1.85A1.83 1.83 0 000 25.284v3.7c0 1.02.83 1.85 1.85 1.85h22.2zm3.083-6.166H29.6v8.097l-.891-.594a.617.617 0 00-.685 0l-.89.594v-8.097zm-19.733 0h8.633V29.6H7.4v-4.933zm-6.167 4.316v-3.7c0-.351.265-.616.617-.616h4.317V29.6H1.85a.61.61 0 01-.617-.617z"/><path d="M12.95 25.9a.617.617 0 00-.617.617v1.233a.617.617 0 001.234 0v-1.233a.617.617 0 00-.617-.617zM10.483 25.9a.617.617 0 00-.616.617v1.233a.617.617 0 001.233 0v-1.233a.617.617 0 00-.617-.617z"/></g></symbol><symbol id="icon_coffee-cup"><g clip-path="url(#clip0)" fill="#fff"><path d="M36.277 14.923h-5.925v-1.53c0-.399-.324-.723-.723-.723h-15.61a.723.723 0 000 1.446h14.887v5.54c0 4.867-2.598 9.39-6.794 11.852H8.24a13.769 13.769 0 01-6.795-11.852v-5.54h4.842a.723.723 0 100-1.445H.723c-.4 0-.723.323-.723.722v6.263a15.157 15.157 0 005.699 11.852H.723c-.4 0-.723.323-.723.723C0 34.86 2.14 37 4.77 37h22.546c2.63 0 4.77-2.14 4.77-4.77 0-.399-.324-.722-.723-.722h-6.71a15.264 15.264 0 003.346-3.734h2.04A6.97 6.97 0 0037 20.812v-5.167c0-.399-.324-.722-.723-.722zm-5.716 18.03a3.33 3.33 0 01-3.245 2.602H4.77a3.33 3.33 0 01-3.246-2.602h29.037zm-.21-13.297v-.397h2.313v1.553a2.629 2.629 0 01-2.626 2.626h-.164c.316-1.229.478-2.5.478-3.782zm5.204 1.157a5.523 5.523 0 01-5.517 5.516h-1.23c.231-.471.437-.954.617-1.446h.613a4.076 4.076 0 004.071-4.07v-2.277c0-.399-.323-.723-.722-.723h-3.035v-1.445h5.203v4.445zM15.866 4l-.376-.473a1.884 1.884 0 01-.002-2.355.722.722 0 10-1.132-.899 3.323 3.323 0 00.003 4.155l.376.472c.722.905.723 2.171.003 3.078l-.385.485a.723.723 0 001.132.899l.385-.486A3.9 3.9 0 0015.866 4zM19.872 5.624l-.377-.472a1.884 1.884 0 01-.002-2.355.722.722 0 10-1.132-.899 3.323 3.323 0 00.004 4.155l.376.472c.721.905.722 2.171.003 3.078l-.386.485a.723.723 0 101.132.899l.386-.486a3.9 3.9 0 00-.005-4.877zM11.86 5.624l-.376-.472a1.884 1.884 0 01-.002-2.355.723.723 0 10-1.132-.899 3.323 3.323 0 00.004 4.155l.376.472c.72.905.722 2.171.002 3.078l-.385.485a.723.723 0 001.132.899l.385-.486a3.9 3.9 0 00-.004-4.877z"/><path d="M10.86 12.882a.728.728 0 00-.51-.212.728.728 0 00-.512.212.73.73 0 00-.212.51c0 .191.078.377.212.513a.728.728 0 001.022 0 .727.727 0 000-1.023zM26.16 18.934c-.399 0-.723.323-.723.722 0 2.683-1.088 5.319-2.985 7.233a.723.723 0 101.027 1.017 11.81 11.81 0 003.404-8.25c0-.399-.324-.722-.723-.722zM21.238 28.85a.723.723 0 00-.985-.274l-.016.01a.723.723 0 00.71 1.258l.016-.01a.723.723 0 00.275-.984z"/></g></symbol><symbol id="icon_debit-card"><path d="M30.833 6.533v-3.45A3.087 3.087 0 0027.75 0H3.083A3.087 3.087 0 000 3.083V16.65a3.077 3.077 0 002.765 3.052l2.318 6.017a3.084 3.084 0 003.986 1.769l14.475-5.577a8.915 8.915 0 00.768 7.915l.355.567v5.99c0 .341.276.617.616.617h11.1c.341 0 .617-.276.617-.617V16.028a8.07 8.07 0 00-2.363-5.684l-3.804-3.811zm0 3.688l1.872 4.858a1.85 1.85 0 01-1.062 2.391l-1.07.413c.17-.389.26-.809.26-1.233v-6.43zm-29.6 6.429V3.083a1.85 1.85 0 011.85-1.85H27.75a1.85 1.85 0 011.85 1.85v3.92h-.005l.005.014v9.633a1.876 1.876 0 01-.042.32l-5.649-5.65a3.29 3.29 0 00-4.748 4.55l2.408 2.63H3.083a1.85 1.85 0 01-1.85-1.85zm7.9 3.083l-4.385 1.689-.648-1.689h5.033zm-.508 6.603a1.85 1.85 0 01-2.391-1.06l-1.04-2.706 7.36-2.837v-.003H22.7l.801.873-14.876 5.733zm27.142 9.43H25.9v-4.933h9.867v4.934zm0-6.166H25.626l-.268-.427a7.69 7.69 0 01-.156-7.898.616.616 0 00-.08-.723l-5.054-5.513a2.057 2.057 0 012.97-2.844l9.826 9.824.872-.872-2.282-2.281.633-.247a3.084 3.084 0 001.768-3.984l-2.087-5.42 1.997 2.002a6.83 6.83 0 012.002 4.81V29.6z" fill="#fff"/><path d="M7.03 8.633c.886 0 1.603-.717 1.603-1.603V4.07c0-.886-.717-1.603-1.603-1.603H4.07c-.886 0-1.603.717-1.603 1.603v2.96c0 .886.717 1.603 1.603 1.603h2.96zM3.7 7.03v-.863h1.233V4.933H3.7V4.07a.37.37 0 01.37-.37h2.96a.37.37 0 01.37.37v.863H6.167v1.234H7.4v.863a.37.37 0 01-.37.37H4.07a.37.37 0 01-.37-.37zM3.083 10.483H5.55v1.234H3.083v-1.234zM3.083 14.183H5.55v1.234H3.083v-1.234zM14.183 14.183h2.467v1.234h-2.467v-1.234zM6.783 10.483H9.25v1.234H6.783v-1.234zM10.483 10.483h2.467v1.234h-2.467v-1.234zM14.183 10.483h2.467v1.234h-2.467v-1.234zM25.9 3.083h1.233v1.85H25.9v-1.85zM23.433 3.083h1.234v1.85h-1.234v-1.85zM20.967 3.083H22.2v1.85h-1.233v-1.85zM18.5 3.083h1.233v1.85H18.5v-1.85zM27.133 32.067h1.234V33.3h-1.234v-1.233z" fill="#fff"/></symbol><symbol id="icon_facebook"><path d="M12.5 0C5.608 0 0 5.608 0 12.5S5.608 25 12.5 25 25 19.392 25 12.5 19.393 0 12.5 0zm3.109 12.94h-2.034v7.249h-3.013V12.94H9.129v-2.562h1.433V8.721c0-1.187.563-3.041 3.04-3.041l2.234.009v2.486h-1.621c-.264 0-.639.132-.639.698v1.506h2.296l-.263 2.561z" fill="inherit"/></symbol><symbol id="icon_flipchart"><path d="M10.252 12.363c-.3 0-.542.243-.542.542v1.312a.542.542 0 001.084 0v-1.312c0-.3-.243-.542-.542-.542zM24.753 12.363c-.3 0-.542.243-.542.542v1.312a.542.542 0 101.084 0v-1.312c0-.3-.243-.542-.542-.542zM19.649 13.718a.542.542 0 00-.765.051c-.337.386-.84.607-1.382.607a1.826 1.826 0 01-1.381-.607.542.542 0 00-.816.714 2.91 2.91 0 002.197.977 2.91 2.91 0 002.198-.977.542.542 0 00-.051-.765z" fill="#fff"/><path d="M36.076 21.392c-1.415-1.415-2.371-4.543-2.765-9.046a55.646 55.646 0 01-.172-6.14 1.63 1.63 0 001.1-1.538V3.613c0-.897-.73-1.626-1.627-1.626H19.82v-.49C19.82.672 19.148 0 18.323 0h-1.641c-.825 0-1.497.672-1.497 1.497v.49H2.392c-.897 0-1.626.73-1.626 1.626v1.055c0 .7.445 1.3 1.068 1.528-.019.665.016 16.908.016 16.908a1.63 1.63 0 00-1.084 1.533v1.054c0 .897.73 1.627 1.626 1.627h4.816L3.8 35.408A1.144 1.144 0 004.856 37h2.227c.462 0 .877-.275 1.057-.701l3.783-8.98h11.159l3.783 8.98c.18.426.594.701 1.057.701h2.227a1.144 1.144 0 001.056-1.592l-3.408-8.09h4.815c.897 0 1.627-.73 1.627-1.627v-1.054a1.63 1.63 0 00-1.085-1.533v-.786h2.538a.542.542 0 00.384-.926zM16.269 1.497c0-.228.185-.413.413-.413h1.641c.228 0 .413.185.413.413v.49H16.27v-.49zM7.14 35.877a.063.063 0 01-.058.039H4.856c-.008 0-.033 0-.052-.028a.058.058 0 01-.005-.059l3.585-8.51h2.363L7.14 35.877zm23.065-.048c.003.008.013.031-.005.059-.019.028-.044.028-.052.028h-2.227a.062.062 0 01-.058-.038l-3.606-8.56h2.363l3.585 8.511zm2.95-11.192v1.054c0 .3-.244.543-.543.543H2.393a.543.543 0 01-.543-.543v-1.054c0-.3.243-.543.542-.543h30.22c.3 0 .543.244.543.543zm-4.109-3.403a.542.542 0 10.044 1.084h2.98v.692H2.934v-5.067c.426 1.517.97 2.72 1.628 3.601.228.306.47.774.91.774h21.363a.542.542 0 00.587-.538v-.004a.552.552 0 00-.543-.542H5.705a4.521 4.521 0 01-.142-.167c-.053-.066-.095-.141-.155-.201-.939-1.281-1.64-3.431-2.06-6.284a43.797 43.797 0 01-.408-4.67 56.874 56.874 0 01-.024-3.618h3.151a.542.542 0 000-1.084H2.392a.543.543 0 01-.542-.542V3.613c0-.299.243-.542.542-.542h30.22c.3 0 .543.243.543.542v1.054c0 .3-.243.543-.542.543H8.235a.542.542 0 000 1.084H32.05c-.066 2.321-.123 10.94 2.515 14.94h-5.518z" fill="#fff"/></symbol><symbol id="icon_hour"><path d="M36.383 33.3h-1.85V21.583a.617.617 0 00-1.121-.353l-8.634 12.333a.617.617 0 00.505.97H33.3v1.85a.617.617 0 001.233 0v-1.85h1.85a.617.617 0 100-1.233zm-3.083 0h-6.833l6.833-9.76v9.76z" fill="#fff"/><path d="M25.283 35.767h-7.3l6.787-7.993a.65.65 0 00.043-.057 4.29 4.29 0 00-.968-5.824 4.933 4.933 0 00-7.812 4.007.617.617 0 001.234 0 3.7 3.7 0 015.858-3.006 3.044 3.044 0 01.678 4.11l-7.623 8.98A.617.617 0 0016.65 37h8.633a.617.617 0 100-1.233z" fill="#fff"/><path d="M16.664 32.695a.617.617 0 00-.593-.64c-8.046-.298-14.503-6.744-14.816-14.788H3.7a.617.617 0 000-1.234H1.255c.308-8.03 6.748-14.47 14.778-14.777v1.827a.617.617 0 001.234 0V1.256c7.92.306 14.313 6.578 14.77 14.491l-2.405-2.405a.617.617 0 00-.872.872l3.442 3.442c.065.079.149.14.243.177a.734.734 0 00.074.018.612.612 0 00.13.032h.036a.592.592 0 00.138-.027.58.58 0 00.075-.015.608.608 0 00.223-.139l3.489-3.488a.617.617 0 00-.872-.872l-2.465 2.463C32.833 6.966 25.543.022 16.693.01 16.679.008 16.666 0 16.65 0c-.015 0-.028.008-.044.009C7.445.02.021 7.445.01 16.606c0 .016-.009.029-.009.044 0 .015.008.028.009.044.015 8.935 7.087 16.262 16.016 16.594h.023a.617.617 0 00.616-.593z" fill="#fff"/><path d="M24.935 8.365a.617.617 0 00-.872 0l-6.627 6.626a1.932 1.932 0 00-1.573 0l-3.137-3.137a.617.617 0 00-.872.872l3.131 3.131a1.847 1.847 0 002.973 2.102 1.83 1.83 0 00.356-2.101l6.62-6.62a.617.617 0 000-.873zm-7.849 8.72v.001a.63.63 0 01-.872 0 .617.617 0 11.872 0z" fill="#fff"/></symbol><symbol id="icon_instagram"><path d="M12.5 15.002a2.506 2.506 0 002.503-2.502c0-.545-.178-1.048-.473-1.459A2.5 2.5 0 0012.5 9.998c-.835 0-1.574.412-2.03 1.043a2.49 2.49 0 00-.473 1.458 2.504 2.504 0 002.502 2.503zM17.964 9.439V7.029l-.314.001-2.096.007.008 2.41 2.402-.008z" fill="inherit"/><path d="M12.5 0C5.608 0 0 5.608 0 12.5S5.608 25 12.5 25 25 19.392 25 12.5 19.393 0 12.5 0zm7.109 11.041v5.82a2.75 2.75 0 01-2.748 2.749H8.14a2.75 2.75 0 01-2.748-2.748V8.139a2.75 2.75 0 012.748-2.747h8.722a2.75 2.75 0 012.748 2.747v2.902z" fill="inherit"/><path d="M16.389 12.5a3.893 3.893 0 01-3.889 3.889 3.893 3.893 0 01-3.888-3.89c0-.515.103-1.008.286-1.458H6.776v5.82c0 .753.61 1.362 1.362 1.362h8.722c.751 0 1.363-.609 1.363-1.361v-5.82H16.1c.184.45.289.942.289 1.458z" fill="inherit"/></symbol><symbol id="icon_juice"><g clip-path="url(#clip0)" fill="#fff"><path d="M22.125 22.098a1.491 1.491 0 012.106 0 .616.616 0 00.871-.872 2.726 2.726 0 00-3.85 0 .617.617 0 00.873.872z"/><path d="M36.383 24.745H29.23l1.084-11.409a.617.617 0 00-.617-.678h-3.035l1.218-4.542 4.88-4.88A1.85 1.85 0 1030.143.618l-5.23 5.232a.591.591 0 00-.067.08c-.193.214-.334.47-.41.748l-1.603 5.98H10.738l-1.907-3.25A3.062 3.062 0 009.86 7.318a2.467 2.467 0 002.8-3.605A6.791 6.791 0 003.942.948L3.618.386a.617.617 0 10-1.068.617l.323.56A6.78 6.78 0 00.91 10.496a2.466 2.466 0 004.517-.597c0-.012 0-.023.005-.033.423.207.887.316 1.357.319a3.07 3.07 0 00.972-.166l2.14 3.646 1.963 20.61a3.084 3.084 0 003.083 2.801h10.337C31.751 37.07 36.992 31.83 37 25.361a.616.616 0 00-.617-.616zM25.625 6.999a.596.596 0 01.162-.27.597.597 0 00.058-.067l5.173-5.171a.617.617 0 01.872.872l-4.995 4.995a.609.609 0 00-.16.277l-1.35 5.023h-1.274l1.514-5.66zM23.98 17.426a7.292 7.292 0 00-.432-.054c-.028 0-.056 0-.085-.004a6.686 6.686 0 00-.58-.02h-.03l.924-3.457h1.278l-.95 3.55c-.042-.007-.084-.01-.125-.015zm-1.48-3.534l-.966 3.606a6.893 6.893 0 00-3.471 1.876 5.677 5.677 0 01-2.523 1.463l-4.077-6.945H22.5zM11.593 4.329a1.234 1.234 0 01-2.135 1.234A11.965 11.965 0 005.98 1.62a5.556 5.556 0 015.612 2.71zM4.237 9.581a1.233 1.233 0 01-2.259.299 5.546 5.546 0 01.455-6.221 11.97 11.97 0 001.68 4.987c.165.283.21.62.124.935zM5.18 8.03C3.488 5.095 3.356 2.675 4.008 2.298c.653-.377 2.684.948 4.378 3.881A1.851 1.851 0 115.18 8.03zm9.048 13.008a5.694 5.694 0 01-2.43-.454l-.418-4.397 2.848 4.851zm.717 14.808a1.853 1.853 0 01-1.85-1.685l-1.167-12.22a6.562 6.562 0 002.99.274l.584.994a.617.617 0 00.84.218.617.617 0 00.22-.843l-.384-.653a6.914 6.914 0 002.754-1.684 5.675 5.675 0 013.714-1.652l.092-.004a6.24 6.24 0 01.462 0l.116.005c.15.009.3.024.45.046l.108.015c.16.026.317.058.475.098A5.661 5.661 0 0127 20.247a.617.617 0 00.872-.872 6.879 6.879 0 00-2.58-1.622l1.04-3.861h2.69l-1.034 10.853H14.183a.617.617 0 00-.617.616 11.717 11.717 0 006.516 10.484h-5.137zm10.338 0a10.497 10.497 0 01-10.465-9.867h1.244c.06.92.26 1.826.588 2.688a.617.617 0 001.152-.44 8.025 8.025 0 01-.506-2.248h15.971a8.006 8.006 0 01-13.59 5.11.617.617 0 10-.863.881 9.238 9.238 0 0015.688-5.991h1.247a10.497 10.497 0 01-10.466 9.867z"/><path d="M20.966 29.061c.341 0 .617-.276.617-.616v-.617a.616.616 0 10-1.233 0v.617c0 .34.276.616.616.616zM23.433 30.911c.341 0 .617-.276.617-.616v-.617a.616.616 0 10-1.233 0v.617c0 .34.276.616.616.616zM30.216 29.061c.341 0 .617-.276.617-.616v-.617a.617.617 0 10-1.233 0v.617c0 .34.276.616.616.616zM27.75 31.528c.34 0 .616-.276.616-.617v-.616a.617.617 0 10-1.233 0v.616c0 .34.276.617.617.617zM25.9 29.061c.34 0 .617-.276.617-.616v-.617a.617.617 0 10-1.234 0v.617c0 .34.276.616.617.616z"/></g></symbol><symbol id="icon_location"><g clip-path="url(#clip0)" fill="#fff"><path d="M12.139 25.327a102.457 102.457 0 004.47 5.816h-3.042a.617.617 0 000 1.233h9.867a.617.617 0 100-1.233H20.39l.418-.508a101.316 101.316 0 004.053-5.308 54.189 54.189 0 004.074-6.565c1.259-2.473 1.898-4.526 1.898-6.102a12.325 12.325 0 00-3.612-8.733.617.617 0 10-.873.871A11.096 11.096 0 0129.6 12.66c0 1.38-.593 3.244-1.763 5.542a52.958 52.958 0 01-3.982 6.413 100.263 100.263 0 01-4.885 6.31.625.625 0 01-.94 0 99.751 99.751 0 01-4.885-6.31 52.96 52.96 0 01-3.98-6.413C7.991 15.904 7.4 14.04 7.4 12.66c0-4.467 2.671-8.5 6.784-10.244a11.17 11.17 0 018.64 0 .617.617 0 00.48-1.136c-6.279-2.648-13.517.294-16.167 6.573a12.288 12.288 0 00-.97 4.807c0 1.576.639 3.629 1.898 6.105a54.134 54.134 0 004.074 6.562z"/><path d="M18.5 7.093a.617.617 0 100-1.233 6.167 6.167 0 104.36 1.806.617.617 0 10-.871.872A4.933 4.933 0 1118.5 7.093zM36.768 33.962l-3.793-6.784a1.917 1.917 0 00-1.678-.968h-4.395a.617.617 0 000 1.233h4.395a.684.684 0 01.603.337l3.791 6.783a.555.555 0 01-.005.57.678.678 0 01-.597.327H1.912a.678.678 0 01-.596-.327.555.555 0 01-.006-.57l3.791-6.783a.683.683 0 01.602-.337h4.395a.617.617 0 100-1.233H5.703a1.918 1.918 0 00-1.679.968L.232 33.962a1.789 1.789 0 00.02 1.795 1.9 1.9 0 001.66.936h33.177a1.9 1.9 0 001.66-.936 1.788 1.788 0 00.019-1.795z"/><path d="M30.217 29.293H27.75a.62.62 0 00-.342.104l-1.85 1.233a.617.617 0 00.685 1.026l1.692-1.13h2.282a.617.617 0 100-1.233zM26.517 33.61c0 .34.276.616.617.616h4.933a.617.617 0 100-1.233h-4.933a.617.617 0 00-.617.617zM11.1 31.76a.617.617 0 00.343-1.13l-1.85-1.233a.62.62 0 00-.343-.104H6.784a.617.617 0 100 1.233h2.281l1.695 1.13c.1.067.22.103.34.104zM4.934 32.993a.617.617 0 000 1.233h4.933a.617.617 0 100-1.233H4.934z"/></g></symbol><symbol id="icon_lock"><path d="M29.34 14.237V10.84C29.34 4.863 24.477 0 18.5 0 12.523 0 7.66 4.863 7.66 10.84v3.397a3.62 3.62 0 00-2.89 3.54v4.103a.723.723 0 101.445 0v-4.103a2.17 2.17 0 012.168-2.168h20.234a2.17 2.17 0 012.168 2.168v15.61c0 .942-.604 1.745-1.445 2.044v-4.357a.723.723 0 10-1.445 0v4.48H8.383a2.17 2.17 0 01-2.168-2.167v-5.71a.723.723 0 10-1.445 0v5.71A3.617 3.617 0 008.383 37h20.234a3.617 3.617 0 003.613-3.613v-15.61a3.62 3.62 0 00-2.89-3.54zm-16.332-.073V10.84A5.498 5.498 0 0118.5 5.348a5.498 5.498 0 015.492 5.492v3.324H13.008zm12.43 0V10.84A6.945 6.945 0 0018.5 3.902a6.945 6.945 0 00-6.938 6.938v3.324H9.105V10.84c0-5.18 4.215-9.395 9.395-9.395s9.395 4.215 9.395 9.395v3.324h-2.457z" fill="#fff"/><path d="M5.492 25.473c.19 0 .377-.077.511-.212a.728.728 0 00.212-.51.727.727 0 00-.723-.724.727.727 0 00-.722.723c0 .19.077.377.211.511a.727.727 0 00.511.212zM18.5 33.098a2.17 2.17 0 002.168-2.168v-3.838a3.883 3.883 0 001.744-3.25 3.907 3.907 0 00-3.903-3.903 3.907 3.907 0 00-3.902 3.903c0 1.314.65 2.518 1.725 3.238v3.85a2.17 2.17 0 002.168 2.168zm-2.448-9.256a2.46 2.46 0 012.457-2.457 2.46 2.46 0 012.457 2.457c0 .93-.516 1.77-1.348 2.192a.723.723 0 00-.395.644v4.252a.723.723 0 01-1.446 0v-4.261a.722.722 0 00-.391-.643 2.45 2.45 0 01-1.334-2.184zM28.617 28.834a.727.727 0 00.723-.723.727.727 0 00-.723-.722.728.728 0 00-.51.211.729.729 0 00-.212.511c0 .19.077.377.211.511a.729.729 0 00.511.212z" fill="#fff"/></symbol><symbol id="icon_mail" viewBox="0 0 465.882 465.882"><path d="M232.941 0C104.499 0 0 104.499 0 232.941s104.499 232.941 232.941 232.941c40.961 0 81.239-10.777 116.499-31.179l-29.146-50.416c-26.416 15.284-56.629 23.36-87.353 23.36-96.338 0-174.706-78.368-174.706-174.706S136.603 58.235 232.941 58.235s174.706 78.368 174.706 174.706v25.364c0 19.052-12.241 32.871-29.118 32.871-16.052 0-29.118-13.066-29.118-29.118v-116.47H309.16c-20.484-17.895-46.948-29.118-76.219-29.118-64.221 0-116.471 52.25-116.471 116.471s52.25 116.471 116.471 116.471c30.582 0 58.232-12.094 79.036-31.442 16.036 19.057 39.754 31.442 66.552 31.442 48.98 0 87.353-40.022 87.353-91.107v-25.364C465.882 104.499 361.383 0 232.941 0zm0 291.176c-32.118 0-58.235-26.118-58.235-58.235 0-32.118 26.118-58.235 58.235-58.235 32.118 0 58.235 26.118 58.235 58.235 0 32.118-26.117 58.235-58.235 58.235z" fill="#4EAE92"/></symbol><symbol id="icon_manager"><g clip-path="url(#clip0)" fill="#fff"><path d="M22.16 12.936a.724.724 0 10.001-1.448.724.724 0 000 1.448zM14.92 12.936a.724.724 0 100-1.448.724.724 0 000 1.448zM16.604 17.903c.608.286 1.26.43 1.936.43.661 0 1.3-.138 1.898-.413a.722.722 0 10-.605-1.313 3.082 3.082 0 01-1.293.282c-.462 0-.905-.099-1.318-.293a.722.722 0 10-.617 1.307z"/><path d="M34.508 29.251c0-3.974-4.534-7.09-8.42-7.238l-1.984-1.778c2.415-1.759 3.881-4.585 3.881-7.588v-4.77c0-4.383-3.584-7.95-7.99-7.95H17.1c-4.4 0-7.94 3.554-7.94 7.95v4.77a9.438 9.438 0 003.83 7.574l-1.997 1.792c-3.879.147-8.422 3.256-8.422 7.238v6.954c0 .4.325.723.725.723h30.49c.4 0 .723-.324.723-.723v-6.954zm-17.572 2.907h3.203l.76 3.325h-4.745l.782-3.325zm3.265-1.445H16.89l-.556-1.727 2.206-1.101 2.253 1.125-.591 1.703zm-1.661-5l-2.517-4.017a9.442 9.442 0 005.029.006l-2.512 4.012zm1.036 1.073l3.476-5.551 1.875 1.68-2.386 5.352-2.965-1.48zM17.099 1.373h2.896c3.607 0 6.542 2.917 6.542 6.504v.597l-1.36-1.954a.725.725 0 00-1.112-.093C22.593 7.93 20.89 8.6 18.54 8.6c-2.35 0-4.053-.67-5.526-2.173a.725.725 0 00-1.116.098l-1.29 1.887v-.535c0-3.587 2.912-6.504 6.49-6.504zm-6.491 11.274v-1.67l2.01-2.942c1.612 1.368 3.516 2.01 5.922 2.01 2.409 0 4.314-.644 5.925-2.014l2.072 2.977v1.639c0 4.327-3.544 7.949-7.99 7.949-4.432 0-7.94-3.61-7.94-7.95zm3.419 8.588l3.476 5.551-2.966 1.48-2.385-5.35 1.875-1.681zM4.019 29.25c0-2.977 3.626-5.548 6.794-5.781l2.71 6.075a.724.724 0 00.985.352l.516-.257.587 1.825-.944 4.018H4.019V29.25zm29.041 6.232H22.384l-.915-4.006.63-1.816.472.236a.726.726 0 00.986-.352l2.709-6.075c3.168.234 6.794 2.804 6.794 5.781v6.232z"/><path d="M27.953 32.158h-2.896a.723.723 0 100 1.445h2.896a.723.723 0 100-1.445zM30.81 32.158a.724.724 0 110 1.448.724.724 0 010-1.448z"/></g></symbol><symbol id="icon_map-flag"><path d="M4.007 0a2.9 2.9 0 00-2.898 2.897c0 1.983 2.593 4.894 2.704 5.016a.261.261 0 00.388 0c.11-.122 2.703-3.033 2.703-5.016A2.9 2.9 0 004.007 0zm0 4.355a1.46 1.46 0 01-1.458-1.458A1.46 1.46 0 014.007 1.44a1.46 1.46 0 011.457 1.457 1.46 1.46 0 01-1.457 1.458z" fill="#7AC5AF"/></symbol><symbol id="icon_meeting-room"><path d="M32.45 0H4.55A4.25 4.25 0 00.302 4.246v20.623a4.25 4.25 0 004.246 4.246h6.089c0 1.08-.237 3.552-2.179 5.143a1.213 1.213 0 00.83 2.158c3.002-.204 8.162-1.449 9.676-7.301h13.486a4.25 4.25 0 004.246-4.246V4.246A4.25 4.25 0 0032.45 0zm3.034 24.869a3.036 3.036 0 01-3.033 3.033c-14.76 0-13.959-.02-14.133.036a.653.653 0 00-.412.443c-1.178 5.5-5.957 6.637-8.678 6.815 3.033-2.487 2.615-6.582 2.596-6.754 0-.007-.05-.172-.06-.197a.937.937 0 00-.136-.182c-.245-.222.034-.161-7.079-.161a3.036 3.036 0 01-3.033-3.033V4.246A3.036 3.036 0 014.55 1.213h27.902a3.036 3.036 0 013.033 3.033v20.623z" fill="#fff"/><path d="M30.631 16.984a1.82 1.82 0 001.82-1.82V13.95a1.82 1.82 0 00-1.82-1.82h-1.213a3.038 3.038 0 00-2.426-2.972V7.885a1.82 1.82 0 00-1.82-1.82H23.96a1.82 1.82 0 00-1.82 1.82v1.213h-1.213V7.885a1.82 1.82 0 00-1.82-1.82h-1.213a1.82 1.82 0 00-1.82 1.82v1.213h-1.212V7.885a1.82 1.82 0 00-1.82-1.82h-1.213a1.82 1.82 0 00-1.82 1.82V9.16a3.038 3.038 0 00-2.426 2.972H6.369a1.82 1.82 0 00-1.82 1.82v1.213a1.82 1.82 0 001.82 1.82h1.213a3.038 3.038 0 002.426 2.972v1.274a1.82 1.82 0 001.82 1.82h1.213a1.82 1.82 0 001.82-1.82v-1.214h1.213v1.214a1.82 1.82 0 001.82 1.82h1.213a1.82 1.82 0 001.82-1.82v-1.214h1.212v1.214a1.82 1.82 0 001.82 1.82h1.213a1.82 1.82 0 001.82-1.82v-1.274a3.038 3.038 0 002.426-2.972h1.213zm0-3.64c.335 0 .607.272.607.607v1.213a.607.607 0 01-.607.607h-1.213v-2.427h1.213zm-7.279-5.459c0-.335.272-.606.607-.606h1.213c.335 0 .607.271.607.606v1.213h-2.427V7.885zm-6.065 0c0-.335.271-.606.607-.606h1.213c.335 0 .606.271.606.606v1.213h-2.426V7.885zm-6.066 0c0-.335.272-.606.607-.606h1.213c.335 0 .607.271.607.606v1.213H11.22V7.885zM6.37 15.771a.607.607 0 01-.607-.607V13.95c0-.335.272-.607.607-.607h1.213v2.427H6.369zm7.279 5.459a.607.607 0 01-.607.606h-1.213a.607.607 0 01-.607-.606v-1.214h2.427v1.214zm6.065 0a.606.606 0 01-.606.606h-1.213a.607.607 0 01-.607-.606v-1.214h2.426v1.214zm6.066 0a.607.607 0 01-.607.606H23.96a.606.606 0 01-.607-.606v-1.214h2.427v1.214zm2.426-4.246a1.82 1.82 0 01-1.82 1.82h-15.77a1.82 1.82 0 01-1.82-1.82V12.13a1.82 1.82 0 011.82-1.82h15.77a1.82 1.82 0 011.82 1.82v4.853zM5.156 3.033a.607.607 0 00-.607-.607h-.606a.607.607 0 100 1.213h.606a.607.607 0 00.607-.606zM6.975 3.64h3.033a.607.607 0 100-1.214H6.975a.607.607 0 100 1.213zM27.598 25.476h-.606a.606.606 0 100 1.213h.606a.607.607 0 000-1.213zM33.057 25.476h-3.032a.607.607 0 100 1.213h3.032a.607.607 0 000-1.213z" fill="#fff"/></symbol><symbol id="icon_network"><path d="M32.964 0a4.04 4.04 0 00-4.037 4.036c0 .697.177 1.352.489 1.924l-6.613 6.613a5.343 5.343 0 00-6.589-.001l-5.16-5.16c.238-.4.382-.86.382-1.357a2.694 2.694 0 00-2.69-2.691 2.694 2.694 0 00-2.691 2.69 2.694 2.694 0 002.69 2.691c.498 0 .958-.144 1.359-.381l5.159 5.16a5.35 5.35 0 000 6.589l-8.52 8.52a4.017 4.017 0 00-2.707-1.051A4.04 4.04 0 000 31.618a4.04 4.04 0 004.036 4.037 4.04 4.04 0 004.037-4.037c0-.696-.177-1.351-.489-1.924l8.63-8.63a5.35 5.35 0 002.623 1.089v6.835a4.04 4.04 0 00-3.364 3.976A4.04 4.04 0 0019.51 37a4.04 4.04 0 004.036-4.036 4.04 4.04 0 00-3.363-3.976v-6.835a5.35 5.35 0 002.622-1.09l5.159 5.16a2.655 2.655 0 00-.382 1.359 2.694 2.694 0 002.69 2.69 2.694 2.694 0 002.692-2.69 2.694 2.694 0 00-2.691-2.691c-.498 0-.958.145-1.358.381l-5.16-5.159a5.35 5.35 0 000-6.59l6.502-6.501a4.014 4.014 0 002.707 1.05A4.04 4.04 0 0037 4.037 4.04 4.04 0 0032.964 0zM7.4 6.055c0-.742.603-1.346 1.345-1.346s1.346.604 1.346 1.346a1.347 1.347 0 01-2.69 0zM4.036 34.309a2.694 2.694 0 01-2.69-2.69 2.694 2.694 0 012.69-2.692 2.694 2.694 0 012.691 2.691 2.694 2.694 0 01-2.69 2.691zM22.2 32.964a2.694 2.694 0 01-2.69 2.69 2.694 2.694 0 01-2.692-2.69 2.694 2.694 0 012.691-2.691 2.694 2.694 0 012.691 2.69zm-2.69-12.11a4.04 4.04 0 01-4.037-4.036 4.04 4.04 0 014.036-4.036 4.04 4.04 0 014.037 4.036 4.04 4.04 0 01-4.037 4.037zm12.108 6.728c0 .742-.603 1.345-1.345 1.345a1.347 1.347 0 01-1.346-1.345 1.347 1.347 0 012.69 0zm1.346-20.855a2.694 2.694 0 01-2.691-2.69 2.694 2.694 0 012.69-2.692 2.694 2.694 0 012.691 2.691 2.694 2.694 0 01-2.69 2.691z" fill="#fff"/></symbol><symbol id="icon_ping-pong"><path fill-rule="evenodd" clip-rule="evenodd" d="M22.639 25.451c.072-.03.144-.063.215-.096l.006-.002a12.56 12.56 0 005.861-5.474 12.602 12.602 0 001.537-6.019c.005-4.29-2.165-8.472-6.058-10.854a13.114 13.114 0 00-.615-.352l-.09-.048a12.6 12.6 0 00-.265-.136l-.082-.04a12.534 12.534 0 00-1.094-.474l-.024-.009a12.537 12.537 0 00-1.495-.458l-.12-.028a12.365 12.365 0 00-.606-.123l-.055-.01a12.574 12.574 0 00-2.165-.19c-2.189 0-4.353.57-6.26 1.646-.663.374-1.288.81-1.87 1.295l-.048.04-.2.171c-.053.046-.104.094-.156.14a14.007 14.007 0 00-.67.654l-.039.041a12.516 12.516 0 00-.798.935l-.017.022c-.161.21-.317.426-.466.648l-.053.078c-.055.083-.11.168-.163.253l-.055.088a12.56 12.56 0 00-1.817 8.11l.009.073.013.113.043.332.006.003.006.043a12.74 12.74 0 003.558 6.972l-4.684 8.114c-.448.775-.55 1.736-.279 2.638.25.83.78 1.486 1.496 1.85a3.28 3.28 0 004.461-1.21l1.12-1.94a.678.678 0 00-1.173-.677l-1.12 1.94a1.926 1.926 0 01-2.664.684c-.387-.193-.68-.562-.822-1.037-.161-.537-.104-1.125.154-1.57l4.95-8.575a.676.676 0 00-.13-.839 11.246 11.246 0 01-3.283-5.475l13.92 8.037c-2.05.565-4.265.563-6.384-.107a.678.678 0 00-.791.307l-1.12 1.94a.677.677 0 101.173.678l.854-1.48a12.74 12.74 0 007.857-.42l.006.003.309-.129.095-.04.082-.036zM6.325 14.953A11.31 11.31 0 017.64 8.386l.009-.015c.039-.07.078-.142.119-.212.058-.1.118-.2.179-.299l.043-.068c.053-.084.106-.167.16-.249l.027-.039a11.362 11.362 0 015.305-4.236 11.365 11.365 0 016.467-.522l.152.033.134.032.217.055.094.024c.224.061.447.129.667.204l.014.004c.107.037.215.076.321.115l.033.012c.224.086.447.178.667.277l.01.005c.099.045.197.092.294.14l.075.036.235.121.081.043c.1.054.2.109.299.166 5.409 3.123 7.269 10.064 4.146 15.473-.065.113-.133.224-.202.334l-.048.078a11.326 11.326 0 01-4.913 4.236l-15.9-9.18zM28.742 26.957a4.439 4.439 0 00-4.433 4.434 4.439 4.439 0 004.433 4.433 4.438 4.438 0 004.434-4.433 4.438 4.438 0 00-4.434-4.434zm0 7.512a3.082 3.082 0 01-3.078-3.078 3.082 3.082 0 013.078-3.079 3.082 3.082 0 013.079 3.079 3.082 3.082 0 01-3.079 3.078z" fill="#fff"/><path fill-rule="evenodd" clip-rule="evenodd" d="M11.495 28.884a.679.679 0 000 1.355.679.679 0 00.677-.678.679.679 0 00-.677-.677z" fill="#fff"/></symbol><symbol id="icon_play-station-game-control"><path d="M28.477 6.361h-5.943v-1.15a.68.68 0 00-.68-.68h-6.709a.68.68 0 00-.68.68v1.15H8.522C3.823 6.361 0 10.184 0 14.883V24.99c0 4.124 3.022 7.48 6.736 7.48 3.634 0 7.252-2.716 8.067-6.052l1.224-5.015h5.089l1.842 5.085c1.215 3.354 4.73 5.981 8.003 5.981 3.33 0 6.039-3.355 6.039-7.479V14.883c0-4.699-3.824-8.522-8.523-8.522zm-12.653-.47h5.35v.47h-5.35v-.47zM35.64 24.989c0 3.375-2.1 6.12-4.68 6.12-2.692 0-5.708-2.28-6.724-5.086l-2.004-5.533a.68.68 0 00-.64-.448h-6.1a.68.68 0 00-.66.518l-1.35 5.534c-.675 2.765-3.701 5.015-6.747 5.015-2.964 0-5.376-2.745-5.376-6.12V14.883c0-3.95 3.213-7.162 7.162-7.162h19.956c3.95 0 7.162 3.213 7.162 7.162V24.99z" fill="#fff"/><path d="M28.171 13.132a1.28 1.28 0 100-2.561 1.28 1.28 0 000 2.561zM28.171 20.33a1.28 1.28 0 100-2.563 1.28 1.28 0 000 2.562zM31.77 16.732a1.282 1.282 0 100-2.564 1.282 1.282 0 000 2.564zM24.573 16.732a1.282 1.282 0 100-2.563 1.282 1.282 0 000 2.563zM12.23 14.367H9.324V11.46a1.054 1.054 0 00-2.109 0v2.907H4.308a1.053 1.053 0 100 2.108h2.907v2.907a1.054 1.054 0 002.109 0v-2.907h2.906a1.054 1.054 0 000-2.108z" fill="#fff"/></symbol><symbol id="icon_printer"><g clip-path="url(#clip0)" fill="#fff"><path d="M34.394 7.821h-6.908V3.923a.785.785 0 00-.784-.785H10.298a.785.785 0 00-.784.785v3.898H2.606A2.61 2.61 0 000 10.428v12.49a2.61 2.61 0 002.606 2.606h6.908v7.553c0 .433.351.785.784.785h16.404a.785.785 0 00.784-.785v-7.553h6.908A2.61 2.61 0 0037 22.918v-12.49a2.61 2.61 0 00-2.606-2.607zm-6.908 1.57h1.872v2.195h-1.872V9.39zM11.083 4.707h14.834v6.878H11.083V4.708zM7.643 9.39h1.87v2.196h-1.87V9.39zm18.274 22.902H11.083V21.96h14.834v10.332zm9.514-9.374c0 .572-.465 1.037-1.037 1.037h-6.908V21.96h1.431a.785.785 0 000-1.569H8.084a.785.785 0 000 1.57h1.43v1.994H2.607a1.038 1.038 0 01-1.037-1.037v-12.49c0-.572.465-1.038 1.037-1.038h3.467v2.98c0 .434.351.785.785.785h23.284a.785.785 0 00.785-.784V9.39h3.467c.572 0 1.037.465 1.037 1.037v12.49z"/><path d="M4.972 16.828a.983.983 0 100-1.966.983.983 0 000 1.966zM18.272 27.927H14.61a.785.785 0 000 1.57h3.662a.785.785 0 000-1.57zM22.39 23.955h-7.78a.785.785 0 000 1.569h7.78a.785.785 0 000-1.57z"/></g></symbol><symbol id="icon_security"><g clip-path="url(#clip0)" fill="#fff"><path d="M32.51 7.491L18.606.081a.691.691 0 00-.659.004L4.425 7.495a.692.692 0 00-.36.608v9.679a20.042 20.042 0 0012.013 18.342l1.877.818a.691.691 0 00.55.001l2.116-.913a20.002 20.002 0 0012.256-18.44V8.103a.693.693 0 00-.366-.612zM31.494 17.59a18.621 18.621 0 01-11.415 17.166l-.004.002-1.842.795-1.6-.698A18.655 18.655 0 015.45 17.782v-9.27L18.284 1.48l13.209 7.039v9.072z"/><path d="M13.176 17.333a.692.692 0 00-1.053.899l3.657 4.283a.692.692 0 00.963.087l8.517-6.93a.692.692 0 10-.874-1.073L16.394 21.1l-3.218-3.768z"/></g></symbol><symbol id="icon_telephone"><g clip-path="url(#clip0)" fill="#7AC5AF"><path d="M6.082 5.292c-.261-.258-.587-.258-.847 0-.198.197-.396.393-.591.593-.053.055-.098.066-.163.03-.128-.07-.265-.127-.388-.203-.575-.362-1.056-.826-1.482-1.349a3.51 3.51 0 01-.53-.85c-.027-.064-.022-.105.03-.157.197-.191.39-.388.585-.584.271-.273.271-.593-.002-.868l-.464-.466c-.16-.16-.318-.321-.48-.48C1.49.705 1.164.705.904.962c-.2.196-.391.397-.594.59a.965.965 0 00-.303.651c-.032.415.07.806.213 1.187.293.79.74 1.49 1.28 2.133a7.922 7.922 0 002.624 2.052c.46.224.935.395 1.453.423.356.02.666-.07.914-.348.17-.19.361-.362.541-.544.266-.27.268-.596.003-.862-.316-.318-.634-.635-.952-.95zM5.764 3.965l.614-.104a2.745 2.745 0 00-.767-1.482 2.73 2.73 0 00-1.565-.78l-.086.617c.46.065.88.273 1.212.604.313.313.517.71.592 1.145zM6.725 1.295A4.53 4.53 0 004.128 0L4.04.618c.856.12 1.632.507 2.244 1.118a3.924 3.924 0 011.1 2.123L8 3.754a4.563 4.563 0 00-1.275-2.459z"/></g></symbol><symbol id="icon_vacuum"><g clip-path="url(#clip0)" fill="#fff"><path d="M36.918 31.996l-.33-1.168c-.686-2.09-2.694-1.882-2.694-1.882 0-1.028-.81-1.87-1.826-1.92V8.87c0-.952-.19-1.874-.566-2.742a.542.542 0 10-.995.431c.317.73.477 1.508.477 2.31v2.136h-2.15V8.871a3.689 3.689 0 00-3.685-3.685h-3.23a3.689 3.689 0 00-3.686 3.685v8.922c-.66-.516-1.38-.957-2.15-1.31V8.87a5.842 5.842 0 015.835-5.836h3.231c1.609 0 3.108.643 4.222 1.812a.542.542 0 00.785-.748 6.859 6.859 0 00-5.007-2.148h-3.23a6.927 6.927 0 00-6.92 6.92v7.184a10.678 10.678 0 00-1.93-.449v-.966c0-1.033-.84-1.873-1.873-1.873H7.821c-1.033 0-1.874.84-1.874 1.873v.866H4.942A4.947 4.947 0 000 20.448v7.614a4.484 4.484 0 002.956 4.234 5.175 5.175 0 004.577 2.769c1.872 0 3.515-1 4.423-2.494h1.81s-.136 2.125 1.889 2.125h2.36a1.891 1.891 0 001.89-1.89v-.721a4.513 4.513 0 002.476-4.023v-1.777c0-2.922-1.17-5.576-3.064-7.52V8.872c0-1.434 1.167-2.601 2.601-2.601h3.231c1.434 0 2.6 1.167 2.6 2.6v18.156a1.925 1.925 0 00-1.825 1.92s-2.189-.112-2.693 1.882l-.332 1.168a2.104 2.104 0 00.35 1.858 2.104 2.104 0 001.691.841h9.937c.671 0 1.288-.306 1.692-.841a2.104 2.104 0 00.35-1.858zM13.07 16.701a9.718 9.718 0 018.1 8.021h-4.974a3.13 3.13 0 01-3.126-3.126v-4.895zm-6.04-2.06a.79.79 0 01.79-.79h3.376a.79.79 0 01.79.79v.872c-.128-.004-4.955-.007-4.955-.007v-.866zM4.943 16.59h1.005v3.685a2.443 2.443 0 01-2.44 2.44H1.084v-2.267a3.862 3.862 0 013.858-3.858zM18.016 33.61h-2.361c-.942 0-.805-1.04-.805-1.04h3.022c.325 0 .643-.035.949-.101 0 0 .246 1.141-.805 1.141zm3.28-5.549a3.429 3.429 0 01-3.424 3.425h-5.42a5.149 5.149 0 00.252-1.593 5.177 5.177 0 00-5.17-5.171c-.944 0-1.867.256-2.67.74a.542.542 0 00.56.929 4.079 4.079 0 012.11-.586 4.092 4.092 0 014.086 4.088 4.092 4.092 0 01-4.087 4.087 4.092 4.092 0 01-3.548-6.118.542.542 0 10-.94-.54c-.937 1.59-.654 3.181-.602 3.475a3.408 3.408 0 01-1.359-2.736V23.8h2.423a3.528 3.528 0 003.524-3.524V16.59s4.827.003 4.955.008v4.998a4.215 4.215 0 004.21 4.21h5.09c.007.159.01 2.256.01 2.256zm9.688-15.972v14.933h-2.15V12.09h2.15zm-3.976 16.856a.84.84 0 01.838-.839h4.126a.84.84 0 01.838.839v.037h-5.802v-.037zm8.697 4.254c-.198.261-.5.411-.828.411H24.94c-.328 0-.63-.15-.827-.411a1.028 1.028 0 01-.17-.908l.33-1.168a1.46 1.46 0 011.4-1.057h8.473a1.46 1.46 0 011.398 1.057l.331 1.168c.09.315.028.646-.17.908z"/><path d="M7.533 32.52a2.629 2.629 0 002.626-2.626 2.63 2.63 0 00-2.626-2.626 2.629 2.629 0 00-2.626 2.626 2.629 2.629 0 002.626 2.626zm0-4.168c.85 0 1.542.691 1.542 1.541s-.692 1.543-1.542 1.543c-.85 0-1.542-.692-1.542-1.543 0-.85.692-1.541 1.542-1.541z"/></g></symbol><symbol id="icon_weightlifting"><g clip-path="url(#clip0)"><path d="M36.435 15.168c-.385-.461-.926-.725-1.485-.725h-.84v-.68c0-1.218-1.06-2.211-2.361-2.211H30.64v-1.253c0-.59-.252-1.165-.69-1.579-.87-.822-2.375-.822-3.246 0-.438.415-.69.99-.69 1.58v5.877h-15.03V10.3c0-.59-.252-1.165-.69-1.58-.87-.822-2.375-.822-3.246 0-.438.415-.69.99-.69 1.58v1.252H5.116c-.584 0-1.137.212-1.556.595a2.04 2.04 0 00-.67 1.493v.803h-.832c-.562 0-1.105.265-1.49.728A2.54 2.54 0 000 16.797v3.385c0 .609.202 1.187.568 1.626.385.463.929.728 1.49.728h.833v.803c0 .558.244 1.103.67 1.494.418.383.97.594 1.555.594H6.36v1.253c0 .59.252 1.165.69 1.578a2.352 2.352 0 001.623.638c.612 0 1.188-.227 1.623-.638.438-.414.69-.99.69-1.578v-5.878h15.03v5.878c0 .59.252 1.165.69 1.578a2.352 2.352 0 001.623.638c.612 0 1.188-.227 1.623-.638.438-.414.69-.99.69-1.578v-1.253h1.108c1.301 0 2.36-.992 2.36-2.212v-.679h.841c.559 0 1.1-.265 1.485-.725a2.528 2.528 0 00.566-1.619v-3.405a2.53 2.53 0 00-.566-1.619zM2.058 21.38c-.22 0-.434-.11-.602-.312-.19-.229-.3-.552-.3-.886v-3.385c0-.335.11-.657.3-.886.168-.201.382-.312.602-.312h.833v5.781h-.833zm3.058 2.89c-.29 0-.573-.105-.774-.289a.87.87 0 01-.295-.642V13.64a.87.87 0 01.294-.643 1.16 1.16 0 01.775-.29H6.36v11.563H5.116zm4.712 2.41c0 .277-.116.538-.327.737-.433.41-1.225.41-1.658 0a1.01 1.01 0 01-.327-.737V10.3c0-.278.116-.54.326-.739.217-.204.52-.322.83-.322.31 0 .613.118.83.322.21.2.326.462.326.739v16.38zm1.156-7.034v-2.313h15.032v2.313H10.984zm18.5 7.034c0 .277-.116.538-.326.737-.434.41-1.225.41-1.659 0a1.01 1.01 0 01-.327-.737V10.3c0-.277.116-.54.326-.738.217-.205.52-.322.83-.322.31 0 .613.117.83.322.21.198.326.46.326.738V26.68zm3.47-3.465c0 .582-.54 1.056-1.205 1.056H30.64V12.708h1.108c.664 0 1.204.474 1.204 1.056v9.451zm2.89-3.024c0 .332-.109.652-.297.88-.167.2-.38.31-.597.31h-.84v-5.782h.84c.218 0 .43.11.597.31.189.226.297.547.297.878v3.404z" fill="#fff"/></g></symbol><symbol id="icon_wifi"><g clip-path="url(#clip0)" fill="#fff"><path d="M36.803 12.886C31.922 8.005 25.42 5.316 18.5 5.316c-6.921 0-13.421 2.688-18.303 7.57a.673.673 0 10.953.953C5.777 9.212 11.94 6.664 18.5 6.664c6.561 0 12.723 2.548 17.35 7.174a.672.672 0 00.953 0 .672.672 0 000-.952z"/><path d="M4.158 16.846a.673.673 0 10.953.953c7.382-7.383 19.394-7.383 26.777 0a.673.673 0 10.953-.953c-7.907-7.907-20.774-7.908-28.683 0z"/><path d="M18.5 16.515a14.582 14.582 0 00-10.38 4.293.673.673 0 10.953.953 13.244 13.244 0 019.427-3.898c3.565 0 6.913 1.384 9.427 3.898a.672.672 0 00.953 0 .673.673 0 000-.953 14.58 14.58 0 00-10.38-4.293zM18.5 22.854a4.42 4.42 0 00-4.414 4.415 4.42 4.42 0 004.414 4.415 4.42 4.42 0 004.415-4.415 4.42 4.42 0 00-4.415-4.415zm0 7.482a3.07 3.07 0 01-3.067-3.067A3.07 3.07 0 0118.5 24.2a3.071 3.071 0 013.067 3.068 3.07 3.07 0 01-3.067 3.067z"/></g></symbol></svg>